<svg id="trees" xmlns="http://www.w3.org/2000/svg" viewBox="0 0 1203.86 387.25"><defs><style>.cls-1,.cls-2{fill:#fff;}.cls-2{fill-rule:evenodd;}.cls-10,.cls-11,.cls-12,.cls-13,.cls-14,.cls-15,.cls-16,.cls-17,.cls-18,.cls-19,.cls-20,.cls-21,.cls-22,.cls-23,.cls-24,.cls-25,.cls-26,.cls-27,.cls-3,.cls-4,.cls-5,.cls-6,.cls-7,.cls-8,.cls-9{fill:none;stroke:#fff;stroke-miterlimit:10;}.cls-4{stroke-dasharray:2.04 1.02 2.04 2.04 1.02 2.04;}.cls-5{stroke-dasharray:2.04 1.02 2.04 1.02 2.04 2.04;}.cls-6{stroke-dasharray:2.11 1.05 2.11 2.11 1.05 2.11;}.cls-7{stroke-dasharray:2.11 1.05 2.11 1.05 2.11 2.11;}.cls-8{stroke-dasharray:1.95 0.98 1.95 1.95 0.98 1.95;}.cls-9{stroke-dasharray:1.95 0.98 1.95 0.98 1.95 1.95;}.cls-10{stroke-dasharray:1.94 0.97 1.94 1.94 0.97 1.94;}.cls-11{stroke-dasharray:1.94 0.97 1.94 0.97 1.94 1.94;}.cls-12{stroke-dasharray:1.95 0.98 1.95 1.95 0.98 1.95;}.cls-13{stroke-dasharray:1.95 0.98 1.95 0.98 1.95 1.95;}.cls-14{stroke-dasharray:1.97 0.99 1.97 1.97 0.99 1.97;}.cls-15{stroke-dasharray:1.97 0.99 1.97 0.99 1.97 1.97;}.cls-16{stroke-dasharray:1.82 0.91 1.82 1.82 0.91 1.82;}.cls-17{stroke-dasharray:1.82 0.91 1.82 0.91 1.82 1.82;}.cls-18{stroke-dasharray:2.12 1.06 2.12 2.12 1.06 2.12;}.cls-19{stroke-dasharray:2.12 1.06 2.12 1.06 2.12 2.12;}.cls-20{stroke-dasharray:1.93 0.96 1.93 1.93 0.96 1.93;}.cls-21{stroke-dasharray:1.93 0.96 1.93 0.96 1.93 1.93;}.cls-22{stroke-dasharray:2.04 1.02 2.04 2.04 1.02 2.04;}.cls-23{stroke-dasharray:2.04 1.02 2.04 1.02 2.04 2.04;}.cls-24{stroke-dasharray:1.96 0.98 1.96 1.96 0.98 1.96;}.cls-25{stroke-dasharray:1.96 0.98 1.96 0.98 1.96 1.96;}.cls-26{stroke-dasharray:1.96 0.98 1.96 1.96 0.98 1.96;}.cls-27{stroke-dasharray:1.96 0.98 1.96 0.98 1.96 1.96;}</style></defs><title>dashed-lines</title><path class="cls-1" d="M1203.86,339.36l-4.73-1.45-7.73,2.55L1178,337l-21.94,2.31-4.82-1.81-12,2.37-7-2.51-11.88.95-2.6-2-5.4.09-4.38-3.66-13.63,2.81-8.45-6.53-6.35,1.77-7.91-3.65-4.73,2.06-37.42-5.9-9.95,2.78-14.05-5L999,323.42l-15.71-4.07-12.45,6.57-4-1-13.07,6.43-3.47-4-5,3s-12.47-.16-12.15-0.31-16.9,6.17-16.9,6.17l-11.51-4.36-21.25,2.84-4.47-1.21L865.4,346.58l-7.33-3.67-15.33,1.39-6.8,5.9-9.12.49L821,356.37l-3-1.11-21.24,2.83-4.48-1.21-13.68,13.05-7.33-3.66L756,367.65l-6.46,5.61-2.3-.9-12.27,1.32-9.11-4-10.43-2-6.2,2.86-7.8-6.06-5.78,2-7.3-3.64-6.06,1.61-5.83-3L663,362.84l-17.69-3.9-9.85,2.25-10.09-5.65-9.19,2.92L605.1,354l-3.17,1.62v44.9h601.93V339.36Z" transform="translate(0 -13.28)"/><polygon class="cls-1" points="601.93 342.39 595.07 350.98 592.02 359.77 586.6 355.86 568.49 353.64 560.65 356.81 546.1 342.61 543.22 344.35 527.84 345.29 520.95 342.39 509.85 346.36 492.3 340.45 479.69 340.09 476.49 336.09 471.3 341.26 463.42 340.29 457.76 334.4 452.8 335.72 441.08 329.69 423.35 333.06 412.29 330.84 403.58 335.66 392.32 333.44 377.55 336.66 361.5 336.09 355.75 338.72 349.2 336.64 342.71 340.2 334.28 338.58 327.44 345.05 313.06 342.12 309.47 345.91 303.93 345.2 301.37 347.08 293.77 346.41 291.16 347.7 288.51 346.19 282.49 348.6 269.12 346.15 254.66 348.53 241.44 345.51 225.75 349.24 224.04 348.19 211.55 349.31 206.97 352.57 187.79 354.89 183.93 358.6 164.99 363.66 159.03 362.97 156.43 364.68 148.42 363.26 140.27 368.62 111.02 367.24 109.48 368.55 91.56 367.24 72.15 371.3 50.53 367.24 37.54 372.19 0 370.61 0 387.25 601.93 387.25 601.93 342.39"/><path class="cls-1" d="M57.34,79.79C71.69,80,292.91,82,312,82c56.56,0,130.92-.83,190.34-2.18,86.1-1.95,285.16-6.41,285.9-6.43V73.19c-0.74,0-199.8,6.09-285.9,8C442.91,82.57,368.56,82.33,312,82.33c-19.08,0-240.88-2.18-254.65-2.54h0Z" transform="translate(0 -13.28)"/><path class="cls-1" d="M816.29,18.61c-0.74,0-199.8,5-285.9,7C471,26.92,396.63,27.22,340.06,27.22c-19.08,0-240.88-1.64-254.65-2h0C99.18,25.58,321,27.45,340.06,27.45c56.56,0,130.92-1.37,190.34-2.71,86.1-1.95,285.16-5.87,285.9-5.9V18.61Z" transform="translate(0 -13.28)"/><path class="cls-1" d="M806.51,112.61c-0.74,0-199.8,5.55-285.9,7.5-59.42,1.35-133.77,1.11-190.33,1.11-19.08,0-223.34-1.46-254.69-1.83h0c13.78,0.37,235.57,2.06,254.66,2.06,56.56,0,130.92-.83,190.34-2.18,86.1-1.95,285.16-6.41,285.9-6.43v-0.23Z" transform="translate(0 -13.28)"/><path class="cls-1" d="M60,144.9c13.78,0.37,235.57,2.24,254.66,2.24,56.56,0,130.92.23,190.34-1.11,86.1-1.95,285.16-7.48,285.9-7.5V138.3c-0.74,0-199.8,4.48-285.9,6.43-59.42,1.35-133.77,2.18-190.33,2.18-19.08,0-240.88-1.64-254.65-2" transform="translate(0 -13.28)"/><path class="cls-1" d="M1189.53,80.2c-56.56,0-130.92-1.37-190.33-2.71-86.1-1.95-64-4.27-64.76-4.29v0.23c0.74,0-21.33,2.35,64.77,4.29,59.42,1.35,133.77,2.71,190.34,2.71" transform="translate(0 -13.28)"/><path class="cls-1" d="M1159.57,25.61c-56.56,0-130.92-1.37-190.33-2.71-86.1-2-64-4.27-64.76-4.29v0.23c0.74,0-21.33,2.34,64.77,4.29,59.42,1.35,133.77,2.71,190.33,2.71" transform="translate(0 -13.28)"/><path class="cls-1" d="M1184.77,119.61c-56.56,0-130.92-1.37-190.33-2.71-86.1-1.95-64-4.27-64.77-4.29v0.23c0.74,0-21.33,2.35,64.77,4.3,59.42,1.35,133.77,2.71,190.33,2.71" transform="translate(0 -13.28)"/><path class="cls-1" d="M1163.05,145.31c-56.56,0-130.92-1.37-190.33-2.72-86.1-1.95-64-4.27-64.77-4.29v0.23c0.74,0-21.33,2.35,64.77,4.29,59.42,1.35,133.77,2.71,190.34,2.71" transform="translate(0 -13.28)"/><polygon class="cls-1" points="828.97 0 831.35 2.41 833.73 4.83 828.97 4.83 824.21 4.83 826.59 2.41 828.97 0"/><polyline class="cls-1" points="833.3 384.72 832.98 4.57 829.09 4.57 828.85 4.57 824.96 4.57 824.63 384.72"/><rect class="cls-1" x="823.27" y="116.46" width="20.43" height="1.75" transform="translate(101.49 519.58) rotate(-37.6)"/><rect class="cls-1" x="817.49" y="131.74" width="16.9" height="1.75" transform="translate(90.61 518.15) rotate(-37.6)"/><rect class="cls-1" x="826.54" y="119.44" width="20.43" height="1.75" transform="translate(330.67 784.17) rotate(-61.41)"/><rect class="cls-1" x="813.77" y="129.28" width="16.37" height="1.75" transform="translate(314.34 776.33) rotate(-61.41)"/><rect class="cls-1" x="831.85" y="104.06" width="8.46" height="1.69"/><rect class="cls-1" x="823.89" y="43.53" width="16.56" height="1.75" transform="translate(145.72 503.62) rotate(-37.6)"/><rect class="cls-1" x="823.69" y="47.68" width="20.43" height="1.75" transform="translate(392.18 744.24) rotate(-61.41)"/><rect class="cls-1" x="829" y="32.3" width="8.46" height="1.69"/><rect class="cls-1" x="822.67" y="55.67" width="11.93" height="1.69"/><rect class="cls-1" x="822.67" y="59.09" width="11.93" height="1.69"/><rect class="cls-1" x="825.02" y="7.75" width="8.46" height="1.69"/><rect class="cls-1" x="827.45" y="94.27" width="8.46" height="1.69"/><rect class="cls-1" x="827.45" y="73.7" width="8.46" height="1.69"/><rect class="cls-1" x="834.17" y="48.3" width="0.85" height="69.88" transform="translate(-0.3 -10.23) rotate(-0.21)"/><rect class="cls-1" x="817.72" y="119.34" width="8.46" height="1.69"/><rect class="cls-1" x="791.52" y="135.78" width="0.76" height="5.34" transform="translate(-6.06 27.51) rotate(-2.94)"/><rect class="cls-1" x="792.51" y="135.73" width="0.76" height="5.34" transform="translate(-6.15 28.38) rotate(-3)"/><rect class="cls-1" x="792.02" y="136.42" width="0.76" height="4" transform="translate(-6.26 29.23) rotate(-3.06)"/><rect class="cls-1" x="794.14" y="135.64" width="0.76" height="5.34" transform="translate(-6.14 28.43) rotate(-3)"/><rect class="cls-1" x="795.13" y="135.59" width="0.76" height="5.34" transform="translate(-6.14 28.52) rotate(-3)"/><rect class="cls-1" x="794.64" y="136.29" width="0.76" height="4" transform="translate(-6.15 28.5) rotate(-3)"/><rect class="cls-1" x="796.77" y="135.5" width="0.76" height="5.34" transform="translate(-6.15 28.69) rotate(-3)"/><rect class="cls-1" x="797.76" y="135.45" width="0.76" height="5.34" transform="translate(-6.14 28.74) rotate(-3)"/><rect class="cls-1" x="797.26" y="136.15" width="0.76" height="4" transform="translate(-5.95 27.11) rotate(-2.89)"/><rect class="cls-1" x="799.39" y="135.37" width="0.76" height="5.34" transform="translate(-6.04 28) rotate(-2.95)"/><rect class="cls-1" x="800.38" y="135.32" width="0.76" height="5.34" transform="translate(-6.03 28.01) rotate(-2.94)"/><rect class="cls-1" x="799.88" y="136.01" width="0.76" height="4" transform="translate(-5.93 27.19) rotate(-2.89)"/><rect class="cls-1" x="802.01" y="135.23" width="0.76" height="5.34" transform="translate(-6.02 28.09) rotate(-2.94)"/><rect class="cls-1" x="803" y="135.18" width="0.76" height="5.34" transform="translate(-6.1 28.85) rotate(-2.99)"/><rect class="cls-1" x="802.51" y="135.88" width="0.76" height="4" transform="translate(-5.92 27.33) rotate(-2.89)"/><rect class="cls-1" x="804.63" y="135.09" width="0.76" height="5.34" transform="translate(-6.11 29.06) rotate(-3)"/><rect class="cls-1" x="805.63" y="135.04" width="0.76" height="5.34" transform="translate(-6.02 28.41) rotate(-2.95)"/><rect class="cls-1" x="805.13" y="135.74" width="0.76" height="4" transform="translate(-5.92 27.5) rotate(-2.89)"/><rect class="cls-1" x="807.26" y="134.96" width="0.76" height="5.34" transform="translate(-6.01 28.45) rotate(-2.95)"/><rect class="cls-1" x="808.25" y="134.91" width="0.76" height="5.34" transform="translate(-6.09 29.25) rotate(-3)"/><rect class="cls-1" x="807.75" y="135.6" width="0.76" height="4" transform="translate(-6 28.39) rotate(-2.94)"/><rect class="cls-1" x="809.88" y="134.82" width="0.76" height="5.34" transform="matrix(1, -0.05, 0.05, 1, -5.99, 28.54)"/><rect class="cls-1" x="810.87" y="134.77" width="0.76" height="5.34" transform="translate(-6.08 29.39) rotate(-3)"/><rect class="cls-1" x="810.38" y="135.47" width="0.76" height="4" transform="translate(-5.89 27.71) rotate(-2.89)"/><rect class="cls-1" x="812.5" y="134.69" width="0.76" height="5.34" transform="translate(-5.98 28.59) rotate(-2.94)"/><rect class="cls-1" x="813.49" y="134.63" width="0.76" height="5.34" transform="translate(-6.26 31.12) rotate(-3.11)"/><rect class="cls-1" x="813" y="135.33" width="0.76" height="4" transform="translate(-5.98 28.66) rotate(-2.94)"/><rect class="cls-1" x="790.31" y="137.01" width="25.18" height="1.73" transform="translate(-6.08 28.66) rotate(-2.98)"/><rect class="cls-1" x="806.65" y="110.05" width="0.76" height="5.34" transform="translate(-4.79 29.05) rotate(-3)"/><rect class="cls-1" x="807.64" y="110" width="0.76" height="5.34" transform="translate(-4.8 29.24) rotate(-3.01)"/><rect class="cls-1" x="807.15" y="110.7" width="0.76" height="4" transform="translate(-4.8 29.25) rotate(-3.01)"/><rect class="cls-1" x="809.28" y="109.92" width="0.76" height="5.34" transform="translate(-4.71 28.43) rotate(-2.94)"/><rect class="cls-1" x="810.27" y="109.86" width="0.76" height="5.34" transform="translate(-4.71 28.52) rotate(-2.95)"/><rect class="cls-1" x="809.77" y="110.56" width="0.76" height="4" transform="translate(-4.78 29.3) rotate(-3)"/><rect class="cls-1" x="811.9" y="109.78" width="0.76" height="5.34" transform="translate(-4.77 29.37) rotate(-3)"/><rect class="cls-1" x="812.89" y="109.73" width="0.76" height="5.34" transform="translate(-4.77 29.42) rotate(-3)"/><rect class="cls-1" x="812.39" y="110.42" width="0.76" height="4" transform="translate(-4.77 29.39) rotate(-3)"/><rect class="cls-1" x="814.52" y="109.64" width="0.76" height="5.34" transform="translate(-4.62 27.87) rotate(-2.88)"/><rect class="cls-1" x="815.51" y="109.59" width="0.76" height="5.34" transform="translate(-4.76 29.6) rotate(-3)"/><rect class="cls-1" x="815.02" y="110.29" width="0.76" height="4" transform="translate(-4.76 29.57) rotate(-3)"/><rect class="cls-1" x="817.14" y="109.51" width="0.76" height="5.34" transform="translate(-4.6 27.94) rotate(-2.88)"/><rect class="cls-1" x="818.14" y="109.45" width="0.76" height="5.34" transform="translate(-4.75 29.74) rotate(-3)"/><rect class="cls-1" x="817.64" y="110.15" width="0.76" height="4" transform="translate(-4.61 28.05) rotate(-2.89)"/><rect class="cls-1" x="819.77" y="109.37" width="0.76" height="5.34" transform="translate(-4.67 28.97) rotate(-2.94)"/><rect class="cls-1" x="820.76" y="109.32" width="0.76" height="5.34" transform="translate(-4.59 28.17) rotate(-2.88)"/><rect class="cls-1" x="820.26" y="110.02" width="0.76" height="4" transform="translate(-4.74 29.89) rotate(-3)"/><rect class="cls-1" x="822.39" y="109.23" width="0.76" height="5.34" transform="translate(-4.73 30) rotate(-3.01)"/><rect class="cls-1" x="823.38" y="109.18" width="0.76" height="5.34" transform="translate(-4.73 30.05) rotate(-3)"/><rect class="cls-1" x="822.89" y="109.88" width="0.76" height="4" transform="translate(-4.59 28.32) rotate(-2.89)"/><rect class="cls-1" x="825.01" y="109.1" width="0.76" height="5.34" transform="translate(-4.59 28.52) rotate(-2.89)"/><polygon class="cls-1" points="826.9 101.08 826.14 101.12 825.87 95.79 826.62 95.75 826.9 101.08"/><rect class="cls-1" x="825.51" y="109.74" width="0.76" height="4" transform="translate(-4.72 30.12) rotate(-3)"/><rect class="cls-1" x="827.64" y="108.96" width="0.76" height="5.34" transform="translate(-4.64 29.37) rotate(-2.94)"/><rect class="cls-1" x="828.63" y="108.91" width="0.76" height="5.34" transform="translate(-4.77 31.14) rotate(-3.06)"/><rect class="cls-1" x="828.13" y="109.6" width="0.76" height="4" transform="translate(-4.57 28.63) rotate(-2.89)"/><rect class="cls-1" x="805.44" y="111.29" width="25.19" height="1.73" transform="translate(-4.72 29.39) rotate(-2.98)"/><rect class="cls-1" x="788.83" y="70.69" width="0.76" height="5.34" transform="translate(-2.76 28.11) rotate(-3)"/><rect class="cls-1" x="789.82" y="70.63" width="0.76" height="5.34" transform="translate(-2.72 27.37) rotate(-2.94)"/><rect class="cls-1" x="789.32" y="71.33" width="0.76" height="4" transform="translate(-2.76 28.18) rotate(-3)"/><rect class="cls-1" x="791.45" y="70.55" width="0.76" height="5.34" transform="translate(-2.75 28.29) rotate(-3)"/><rect class="cls-1" x="792.44" y="70.5" width="0.76" height="5.34" transform="translate(-2.74 28.21) rotate(-2.99)"/><rect class="cls-1" x="791.95" y="71.19" width="0.76" height="4" transform="translate(-2.75 28.34) rotate(-3)"/><rect class="cls-1" x="794.08" y="70.41" width="0.76" height="5.34" transform="translate(-2.74 28.55) rotate(-3.01)"/><rect class="cls-1" x="795.07" y="70.36" width="0.76" height="5.34" transform="translate(-2.67 26.95) rotate(-2.89)"/><rect class="cls-1" x="794.57" y="71.06" width="0.76" height="4" transform="translate(-2.74 28.45) rotate(-3)"/><rect class="cls-1" x="796.7" y="70.28" width="0.76" height="5.34" transform="translate(-2.67 27.03) rotate(-2.89)"/><polygon class="cls-1" points="798.59 62.26 797.83 62.3 797.55 56.97 798.31 56.92 798.59 62.26"/><rect class="cls-1" x="797.19" y="70.92" width="0.76" height="4" transform="translate(-2.73 28.71) rotate(-3.01)"/><polygon class="cls-1" points="800.22 62.17 799.46 62.21 799.18 56.88 799.94 56.84 800.22 62.17"/><rect class="cls-1" x="800.31" y="70.09" width="0.76" height="5.34" transform="translate(-2.71 28.76) rotate(-3)"/><rect class="cls-1" x="799.82" y="70.78" width="0.76" height="4" transform="translate(-2.68 27.98) rotate(-2.95)"/><rect class="cls-1" x="801.94" y="70" width="0.76" height="5.34" transform="translate(-2.7 28.83) rotate(-3)"/><rect class="cls-1" x="802.93" y="69.95" width="0.76" height="5.34" transform="translate(-2.7 28.83) rotate(-3)"/><rect class="cls-1" x="802.44" y="70.65" width="0.76" height="4" transform="translate(-2.73 29.7) rotate(-3.06)"/><rect class="cls-1" x="804.57" y="69.87" width="0.76" height="5.34" transform="matrix(1, -0.05, 0.05, 1, -2.7, 29.01)"/><rect class="cls-1" x="805.56" y="69.82" width="0.76" height="5.34" transform="translate(-2.66 28.27) rotate(-2.95)"/><polygon class="cls-1" points="805.92 61.2 805.17 61.24 804.96 57.25 805.72 57.21 805.92 61.2"/><rect class="cls-1" x="807.19" y="69.73" width="0.76" height="5.34" transform="translate(-2.68 29.11) rotate(-3)"/><rect class="cls-1" x="808.18" y="69.68" width="0.76" height="5.34" transform="translate(-2.68 29.24) rotate(-3.01)"/><rect class="cls-1" x="807.69" y="70.37" width="0.76" height="4" transform="translate(-2.74 30.81) rotate(-3.12)"/><rect class="cls-1" x="809.81" y="69.59" width="0.76" height="5.34" transform="translate(-2.61 27.52) rotate(-2.88)"/><rect class="cls-1" x="810.8" y="69.54" width="0.76" height="5.34" transform="translate(-2.61 27.62) rotate(-2.88)"/><rect class="cls-1" x="810.31" y="70.24" width="0.76" height="4" transform="translate(-2.67 29.31) rotate(-3)"/><rect class="cls-1" x="787.62" y="71.92" width="25.19" height="1.73" transform="translate(-2.7 28.44) rotate(-2.98)"/><rect class="cls-1" x="835.89" y="39.2" width="5.34" height="0.76" transform="translate(-0.04 -12.42) rotate(-0.06)"/><rect class="cls-1" x="835.9" y="40.19" width="5.34" height="0.76" transform="translate(-0.08 -11.55) rotate(-0.12)"/><rect class="cls-1" x="836.57" y="39.7" width="4" height="0.76" transform="matrix(1, 0, 0, 1, -0.12, -10.76)"/><rect class="cls-1" x="835.9" y="41.83" width="5.34" height="0.76" transform="translate(-0.09 -11.55) rotate(-0.12)"/><rect class="cls-1" x="835.9" y="42.82" width="5.34" height="0.76" transform="translate(-0.09 -11.55) rotate(-0.12)"/><rect class="cls-1" x="836.57" y="42.32" width="4" height="0.76" transform="translate(-0.08 -11.64) rotate(-0.11)"/><rect class="cls-1" x="835.91" y="44.45" width="5.34" height="0.76" transform="translate(-0.13 -10.77) rotate(-0.17)"/><rect class="cls-1" x="835.91" y="45.45" width="5.34" height="0.76" transform="translate(-0.09 -11.55) rotate(-0.12)"/><rect class="cls-1" x="836.58" y="44.95" width="4" height="0.76" transform="translate(-0.05 -12.42) rotate(-0.06)"/><polygon class="cls-1" points="835.91 34.56 835.91 33.81 841.25 33.79 841.25 34.55 835.91 34.56"/><rect class="cls-1" x="835.92" y="48.07" width="5.34" height="0.76" transform="translate(-0.09 -11.65) rotate(-0.11)"/><polygon class="cls-1" points="836.59 35.06 836.59 34.3 840.58 34.29 840.59 35.05 836.59 35.06"/><polygon class="cls-1" points="835.92 37.19 835.92 36.43 841.26 36.42 841.26 37.18 835.92 37.19"/><rect class="cls-1" x="835.92" y="50.7" width="5.34" height="0.76" transform="matrix(1, 0, 0, 1, -0.1, -11.64)"/><rect class="cls-1" x="836.59" y="50.2" width="4" height="0.76" transform="matrix(1, 0, 0, 1, -0.1, -11.56)"/><rect class="cls-1" x="835.93" y="52.33" width="5.34" height="0.76" transform="translate(-0.16 -10.69) rotate(-0.18)"/><rect class="cls-1" x="835.93" y="53.33" width="5.34" height="0.76" transform="matrix(1, 0, 0, 1, -0.1, -11.64)"/><rect class="cls-1" x="836.6" y="52.83" width="4" height="0.76" transform="translate(-0.16 -10.69) rotate(-0.18)"/><rect class="cls-1" x="835.94" y="54.96" width="5.34" height="0.76" transform="translate(-0.11 -11.55) rotate(-0.12)"/><rect class="cls-1" x="835.94" y="55.95" width="5.34" height="0.76" transform="translate(-0.27 -9.04) rotate(-0.29)"/><rect class="cls-1" x="836.61" y="55.46" width="4" height="0.76" transform="translate(-0.16 -10.77) rotate(-0.17)"/><rect class="cls-1" x="835.94" y="57.59" width="5.34" height="0.76" transform="translate(-0.18 -10.69) rotate(-0.18)"/><polygon class="cls-1" points="835.95 46.06 835.94 45.3 841.28 45.29 841.29 46.05 835.95 46.06"/><rect class="cls-1" x="836.62" y="58.08" width="4" height="0.76" transform="translate(-0.23 -9.91) rotate(-0.23)"/><rect class="cls-1" x="835.95" y="60.21" width="5.34" height="0.76" transform="translate(-0.29 -9.05) rotate(-0.29)"/><rect class="cls-1" x="835.95" y="61.21" width="5.34" height="0.76" transform="translate(-0.18 -10.77) rotate(-0.17)"/><rect class="cls-1" x="836.62" y="60.71" width="4" height="0.76" transform="translate(-0.24 -9.9) rotate(-0.23)"/><rect class="cls-1" x="837.73" y="38" width="1.73" height="25.18" transform="translate(-0.13 -11.09) rotate(-0.15)"/><rect class="cls-1" x="818.35" y="16.18" width="0.76" height="5.34" transform="translate(-0.05 -10.83) rotate(-0.17)"/><rect class="cls-1" x="819.34" y="16.18" width="0.76" height="5.34" transform="translate(-0.04 -11.67) rotate(-0.11)"/><rect class="cls-1" x="818.84" y="16.85" width="0.76" height="4" transform="translate(-0.04 -11.68) rotate(-0.11)"/><rect class="cls-1" x="772.33" y="126.52" width="2.26" height="1.01"/><rect class="cls-1" x="774.45" y="126.79" width="2.26" height="0.48"/><rect class="cls-1" x="775.29" y="125.5" width="0.48" height="1.53"/><rect class="cls-1" x="776.48" y="126.52" width="2.26" height="1.01"/><circle class="cls-1" cx="775.53" cy="125.63" r="0.77"/><rect class="cls-1" x="783.08" y="100.94" width="2.26" height="1.01"/><rect class="cls-1" x="785.2" y="101.2" width="2.26" height="0.48"/><rect class="cls-1" x="786.04" y="99.91" width="0.48" height="1.53"/><rect class="cls-1" x="787.22" y="100.94" width="2.26" height="1.01"/><circle class="cls-1" cx="786.28" cy="100.04" r="0.77"/><rect class="cls-1" x="767.32" y="61.43" width="2.26" height="1.01"/><rect class="cls-1" x="769.44" y="61.7" width="2.26" height="0.48"/><rect class="cls-1" x="770.28" y="60.41" width="0.48" height="1.53"/><rect class="cls-1" x="771.47" y="61.43" width="2.26" height="1.01"/><circle class="cls-1" cx="770.52" cy="60.54" r="0.77"/><rect class="cls-1" x="797.03" y="7" width="2.26" height="1.01"/><rect class="cls-1" x="799.14" y="7.26" width="2.26" height="0.48"/><rect class="cls-1" x="799.99" y="5.97" width="0.48" height="1.53"/><rect class="cls-1" x="801.17" y="7" width="2.26" height="1.01"/><circle class="cls-1" cx="800.23" cy="6.11" r="0.77"/><rect class="cls-1" x="815.23" y="4.86" width="8.2" height="1.41"/><rect class="cls-1" x="835.9" y="67.81" width="0.56" height="7.3" transform="translate(746.87 892.64) rotate(-88.78)"/><rect class="cls-1" x="839.07" y="68.99" width="0.39" height="5.07" transform="translate(749.91 895.8) rotate(-88.78)"/><polygon class="cls-1" points="850.65 58.68 845.59 58.57 845.6 58.18 850.66 58.29 850.65 58.68"/><rect class="cls-1" x="849.67" y="67.73" width="0.56" height="8.04" transform="translate(760.13 906.71) rotate(-88.78)"/><polygon class="cls-1" points="846.56 58.12 839.27 57.96 839.28 57.4 846.58 57.55 846.56 58.12"/><polygon class="cls-1" points="846.54 59.25 839.25 59.09 839.26 58.52 846.55 58.68 846.54 59.25"/><polygon class="cls-1" points="852.95 58.35 848.09 58.24 848.1 57.87 852.96 57.97 852.95 58.35"/><rect class="cls-1" x="850.32" y="69.71" width="0.38" height="4.86" transform="translate(760.21 907.63) rotate(-88.78)"/><rect class="cls-1" x="835.93" y="107.11" width="0.56" height="7.3" transform="translate(680.24 926.45) rotate(-86.89)"/><polygon class="cls-1" points="841.81 97.98 836.75 97.7 836.77 97.31 841.83 97.59 841.81 97.98"/><polygon class="cls-1" points="850.66 98.46 845.6 98.19 845.62 97.8 850.68 98.07 850.66 98.46"/><polygon class="cls-1" points="853.97 98.73 845.94 98.29 845.97 97.73 854 98.17 853.97 98.73"/><polygon class="cls-1" points="846.59 97.76 839.31 97.36 839.34 96.8 846.62 97.2 846.59 97.76"/><rect class="cls-1" x="842.62" y="108.04" width="0.56" height="7.3" transform="translate(685.38 933.96) rotate(-86.87)"/><polygon class="cls-1" points="852.97 98.2 848.11 97.94 848.13 97.56 852.99 97.83 852.97 98.2"/><rect class="cls-1" x="850.32" y="109.49" width="0.38" height="4.86" transform="translate(692.53 941.8) rotate(-86.88)"/><rect class="cls-1" x="822.08" y="133.93" width="0.56" height="7.3" transform="translate(671.11 944.25) rotate(-89.05)"/><rect class="cls-1" x="825.25" y="135.09" width="0.39" height="5.07" transform="translate(673.89 947.34) rotate(-89.03)"/><rect class="cls-1" x="834.11" y="135.24" width="0.39" height="5.07" transform="translate(682.46 956.35) rotate(-89.03)"/><rect class="cls-1" x="835.85" y="133.78" width="0.56" height="8.05" transform="translate(684.53 958.26) rotate(-89.05)"/><rect class="cls-1" x="828.82" y="133.47" width="0.56" height="7.3" transform="translate(678.27 950.56) rotate(-89.05)"/><rect class="cls-1" x="828.8" y="134.6" width="0.56" height="7.3" transform="translate(676.95 951.62) rotate(-89.04)"/><polygon class="cls-1" points="839.13 124.38 834.27 124.3 834.27 123.93 839.14 124.01 839.13 124.38"/><polygon class="cls-1" points="839.12 125.14 834.25 125.06 834.26 124.68 839.12 124.76 839.12 125.14"/><polygon class="cls-1" points="825.99 6.07 818.71 5.63 818.74 5.07 826.02 5.51 825.99 6.07"/><rect class="cls-1" x="825.25" y="16.5" width="0.39" height="5.07" transform="translate(756.91 828.57) rotate(-86.56)"/><polygon class="cls-1" points="836.81 6.63 831.75 6.33 831.77 5.94 836.83 6.24 836.81 6.63"/><rect class="cls-1" x="835.84" y="15.66" width="0.56" height="8.04" transform="translate(766.2 839.82) rotate(-86.55)"/><rect class="cls-1" x="828.84" y="15.04" width="0.56" height="7.3" transform="translate(760.69 831.91) rotate(-86.56)"/><rect class="cls-1" x="828.77" y="16.17" width="0.56" height="7.3" transform="translate(759.33 832.89) rotate(-86.55)"/><polygon class="cls-1" points="839.12 6.39 834.26 6.1 834.29 5.72 839.14 6.01 839.12 6.39"/><rect class="cls-1" x="836.47" y="17.66" width="0.38" height="4.86" transform="translate(766.38 840.75) rotate(-86.56)"/><rect class="cls-1" x="814.94" y="123.44" width="5.57" height="1.16"/><rect class="cls-1" x="812.24" y="71.31" width="13.26" height="0.97" transform="translate(-2.62 29.28) rotate(-2.97)"/><polygon class="cls-1" points="894.18 0 896.56 2.41 898.94 4.83 894.18 4.83 889.42 4.83 891.8 2.41 894.18 0"/><polyline class="cls-1" points="898.52 384.72 898.19 4.57 894.3 4.57 894.07 4.57 890.17 4.57 889.85 384.72"/><rect class="cls-1" x="888.49" y="116.46" width="20.43" height="1.75" transform="translate(115.06 559.4) rotate(-37.6)"/><rect class="cls-1" x="882.7" y="131.74" width="16.9" height="1.75" transform="translate(104.15 557.93) rotate(-37.6)"/><rect class="cls-1" x="891.75" y="119.44" width="20.43" height="1.75" transform="translate(364.66 841.42) rotate(-61.41)"/><rect class="cls-1" x="878.99" y="129.28" width="16.37" height="1.75" transform="translate(348.32 833.57) rotate(-61.41)"/><rect class="cls-1" x="897.07" y="104.06" width="8.46" height="1.69"/><rect class="cls-1" x="889.1" y="43.53" width="16.56" height="1.75" transform="translate(159.25 543.39) rotate(-37.59)"/><rect class="cls-1" x="888.9" y="47.68" width="20.43" height="1.75" transform="translate(426.19 801.51) rotate(-61.41)"/><rect class="cls-1" x="894.21" y="32.3" width="8.46" height="1.69"/><rect class="cls-1" x="887.89" y="55.67" width="12.13" height="1.69"/><rect class="cls-1" x="887.89" y="59.09" width="12.13" height="1.69"/><rect class="cls-1" x="890.23" y="7.75" width="8.46" height="1.69"/><rect class="cls-1" x="892.66" y="94.27" width="8.46" height="1.69"/><rect class="cls-1" x="892.66" y="73.7" width="8.46" height="1.69"/><rect class="cls-1" x="899.39" y="48.3" width="0.85" height="69.88" transform="translate(-0.3 -9.98) rotate(-0.21)"/><rect class="cls-1" x="882.94" y="119.34" width="8.46" height="1.69"/><rect class="cls-1" x="904.28" y="138.07" width="5.34" height="0.76" transform="translate(722.13 1023.82) rotate(-87.06)"/><rect class="cls-1" x="903.29" y="138.02" width="5.34" height="0.76" transform="translate(720.31 1022.59) rotate(-87)"/><rect class="cls-1" x="904.46" y="138.04" width="4" height="0.76" transform="translate(719.83 1022.91) rotate(-86.94)"/><rect class="cls-1" x="901.66" y="137.93" width="5.34" height="0.76" transform="translate(718.76 1020.86) rotate(-86.99)"/><rect class="cls-1" x="900.67" y="137.88" width="5.34" height="0.76" transform="translate(717.92 1019.83) rotate(-87)"/><rect class="cls-1" x="901.84" y="137.91" width="4" height="0.76" transform="translate(718.45 1020.37) rotate(-87)"/><rect class="cls-1" x="899.04" y="137.79" width="5.34" height="0.76" transform="translate(716.55 1018.14) rotate(-87)"/><rect class="cls-1" x="898.05" y="137.74" width="5.34" height="0.76" transform="translate(715.57 1017.08) rotate(-87)"/><rect class="cls-1" x="899.21" y="137.77" width="4" height="0.76" transform="translate(717.76 1017.96) rotate(-87.11)"/><rect class="cls-1" x="896.41" y="137.66" width="5.34" height="0.76" transform="matrix(0.05, -1, 1, 0.05, 715.03, 1015.56)"/><rect class="cls-1" x="895.42" y="137.61" width="5.34" height="0.76" transform="translate(714.09 1014.51) rotate(-87.05)"/><rect class="cls-1" x="896.59" y="137.63" width="4" height="0.76" transform="matrix(0.05, -1, 1, 0.05, 715.5, 1015.23)"/><rect class="cls-1" x="893.79" y="137.52" width="5.34" height="0.76" transform="translate(712.67 1012.81) rotate(-87.05)"/><rect class="cls-1" x="892.8" y="137.47" width="5.34" height="0.76" transform="translate(710.91 1011.59) rotate(-87)"/><rect class="cls-1" x="893.97" y="137.5" width="4" height="0.76" transform="translate(713.28 1012.51) rotate(-87.12)"/><rect class="cls-1" x="891.17" y="137.38" width="5.34" height="0.76" transform="translate(709.45 1009.88) rotate(-87)"/><rect class="cls-1" x="890.18" y="137.33" width="5.34" height="0.76" transform="translate(709.37 1009.01) rotate(-87.05)"/><rect class="cls-1" x="891.34" y="137.36" width="4" height="0.76" transform="translate(710.84 1009.74) rotate(-87.12)"/><rect class="cls-1" x="888.54" y="137.25" width="5.34" height="0.76" transform="translate(708.02 1007.32) rotate(-87.06)"/><rect class="cls-1" x="887.56" y="137.2" width="5.34" height="0.76" transform="translate(706.28 1006.11) rotate(-87)"/><rect class="cls-1" x="888.72" y="137.22" width="4" height="0.76" transform="translate(707.56 1006.8) rotate(-87.06)"/><rect class="cls-1" x="885.92" y="137.11" width="5.34" height="0.76" transform="translate(705.71 1004.58) rotate(-87.06)"/><rect class="cls-1" x="884.93" y="137.06" width="5.34" height="0.76" transform="translate(703.78 1003.33) rotate(-86.99)"/><rect class="cls-1" x="886.1" y="137.09" width="4" height="0.76" transform="translate(706.13 1004.24) rotate(-87.12)"/><rect class="cls-1" x="883.3" y="136.98" width="5.34" height="0.76" transform="translate(703.26 1001.81) rotate(-87.05)"/><rect class="cls-1" x="882.31" y="136.92" width="5.34" height="0.76" transform="translate(699.72 1000.22) rotate(-86.88)"/><rect class="cls-1" x="883.47" y="136.95" width="4" height="0.76" transform="translate(702.87 1001.3) rotate(-87.06)"/><rect class="cls-1" x="895.09" y="125.28" width="1.73" height="25.19" transform="translate(711.67 1012.16) rotate(-87.02)"/><rect class="cls-1" x="926.48" y="112.34" width="5.34" height="0.76" transform="translate(767.97 1021.42) rotate(-87)"/><rect class="cls-1" x="925.49" y="112.29" width="5.34" height="0.76" transform="translate(766.93 1020.36) rotate(-86.99)"/><rect class="cls-1" x="926.66" y="112.32" width="4" height="0.76" transform="translate(767.44 1020.89) rotate(-87)"/><rect class="cls-1" x="923.86" y="112.21" width="5.34" height="0.76" transform="translate(766.52 1018.83) rotate(-87.06)"/><rect class="cls-1" x="922.87" y="112.16" width="5.34" height="0.76" transform="translate(765.55 1017.78) rotate(-87.05)"/><rect class="cls-1" x="924.03" y="112.18" width="4" height="0.76" transform="matrix(0.05, -1, 1, 0.05, 765.13, 1018.14)"/><rect class="cls-1" x="921.23" y="112.07" width="5.34" height="0.76" transform="translate(763.23 1015.91) rotate(-87)"/><rect class="cls-1" x="920.24" y="112.02" width="5.34" height="0.76" transform="translate(762.34 1014.88) rotate(-87)"/><rect class="cls-1" x="921.41" y="112.04" width="4" height="0.76" transform="translate(762.73 1015.39) rotate(-86.99)"/><rect class="cls-1" x="918.61" y="111.93" width="5.34" height="0.76" transform="translate(762.75 1013.49) rotate(-87.12)"/><rect class="cls-1" x="917.62" y="111.88" width="5.34" height="0.76" transform="translate(760.04 1012.14) rotate(-87)"/><rect class="cls-1" x="918.79" y="111.91" width="4" height="0.76" transform="translate(760.53 1012.66) rotate(-87)"/><rect class="cls-1" x="915.99" y="111.8" width="5.34" height="0.76" transform="translate(760.42 1010.75) rotate(-87.12)"/><rect class="cls-1" x="915" y="111.74" width="5.34" height="0.76" transform="translate(757.64 1009.38) rotate(-87)"/><rect class="cls-1" x="916.16" y="111.77" width="4" height="0.76" transform="translate(760.01 1010.23) rotate(-87.12)"/><rect class="cls-1" x="913.37" y="111.66" width="5.34" height="0.76" transform="translate(757.11 1007.83) rotate(-87.06)"/><rect class="cls-1" x="912.37" y="111.61" width="5.34" height="0.76" transform="translate(757.11 1006.95) rotate(-87.11)"/><rect class="cls-1" x="913.54" y="111.63" width="4" height="0.76" transform="matrix(0.05, -1, 1, 0.05, 755.69, 1007.14)"/><rect class="cls-1" x="910.74" y="111.52" width="5.34" height="0.76" transform="translate(753.78 1004.91) rotate(-87)"/><rect class="cls-1" x="909.75" y="111.47" width="5.34" height="0.76" transform="translate(752.85 1003.87) rotate(-86.99)"/><rect class="cls-1" x="910.92" y="111.5" width="4" height="0.76" transform="translate(755.21 1004.72) rotate(-87.11)"/><rect class="cls-1" x="908.12" y="111.39" width="5.34" height="0.76" transform="translate(753.21 1002.47) rotate(-87.11)"/><polygon class="cls-1" points="909.28 101.08 910.04 101.12 910.32 95.79 909.56 95.75 909.28 101.08"/><rect class="cls-1" x="908.3" y="111.36" width="4" height="0.76" transform="translate(751.08 1001.66) rotate(-87)"/><rect class="cls-1" x="905.5" y="111.25" width="5.34" height="0.76" transform="translate(749.92 999.56) rotate(-87.05)"/><rect class="cls-1" x="904.51" y="111.2" width="5.34" height="0.76" transform="translate(747.37 998.23) rotate(-86.94)"/><rect class="cls-1" x="905.67" y="111.22" width="4" height="0.76" transform="translate(750.54 999.23) rotate(-87.12)"/><rect class="cls-1" x="917.28" y="99.56" width="1.73" height="25.18" transform="translate(758.43 1009.95) rotate(-87.02)"/><rect class="cls-1" x="930.78" y="72.98" width="5.34" height="0.76" transform="translate(811.36 988.41) rotate(-87)"/><rect class="cls-1" x="929.79" y="72.92" width="5.34" height="0.76" transform="translate(811.39 987.49) rotate(-87.06)"/><rect class="cls-1" x="930.96" y="72.95" width="4" height="0.76" transform="translate(810.71 987.87) rotate(-86.99)"/><rect class="cls-1" x="928.16" y="72.84" width="5.34" height="0.76" transform="translate(808.97 985.66) rotate(-87)"/><rect class="cls-1" x="927.17" y="72.79" width="5.34" height="0.76" transform="translate(808.03 984.61) rotate(-86.99)"/><rect class="cls-1" x="928.34" y="72.81" width="4" height="0.76" transform="translate(808.58 985.15) rotate(-87)"/><rect class="cls-1" x="925.54" y="72.7" width="5.34" height="0.76" transform="translate(806.67 982.91) rotate(-87)"/><rect class="cls-1" x="924.55" y="72.65" width="5.34" height="0.76" transform="translate(807.49 982.1) rotate(-87.11)"/><rect class="cls-1" x="925.71" y="72.68" width="4" height="0.76" transform="translate(806.22 982.4) rotate(-87)"/><rect class="cls-1" x="922.92" y="72.57" width="5.34" height="0.76" transform="translate(806.12 980.4) rotate(-87.11)"/><polygon class="cls-1" points="924.08 62.26 924.84 62.3 925.11 56.97 924.36 56.92 924.08 62.26"/><rect class="cls-1" x="923.09" y="72.54" width="4" height="0.76" transform="translate(803.78 979.63) rotate(-87)"/><polygon class="cls-1" points="922.45 62.17 923.2 62.21 923.48 56.88 922.72 56.84 922.45 62.17"/><rect class="cls-1" x="919.3" y="72.38" width="5.34" height="0.76" transform="translate(801.02 976.37) rotate(-87)"/><rect class="cls-1" x="920.47" y="72.4" width="4" height="0.76" transform="translate(802.42 977.02) rotate(-87.06)"/><rect class="cls-1" x="917.67" y="72.29" width="5.34" height="0.76" transform="translate(799.62 974.67) rotate(-87)"/><rect class="cls-1" x="916.68" y="72.24" width="5.34" height="0.76" transform="translate(798.74 973.63) rotate(-87)"/><rect class="cls-1" x="917.85" y="72.27" width="4" height="0.76" transform="translate(798.17 974.02) rotate(-86.94)"/><rect class="cls-1" x="915.05" y="72.16" width="5.34" height="0.76" transform="translate(797.22 971.91) rotate(-87)"/><rect class="cls-1" x="914.06" y="72.11" width="5.34" height="0.76" transform="translate(797.27 971) rotate(-87.06)"/><polygon class="cls-1" points="916.74 61.2 917.5 61.24 917.7 57.25 916.95 57.21 916.74 61.2"/><rect class="cls-1" x="912.42" y="72.02" width="5.34" height="0.76" transform="translate(794.91 969.17) rotate(-87)"/><rect class="cls-1" x="911.43" y="71.97" width="5.34" height="0.76" transform="translate(794.04 968.13) rotate(-87)"/><rect class="cls-1" x="912.6" y="71.99" width="4" height="0.76" transform="translate(792.75 968.42) rotate(-86.89)"/><rect class="cls-1" x="909.8" y="71.88" width="5.34" height="0.76" transform="translate(794.35 966.66) rotate(-87.11)"/><rect class="cls-1" x="908.81" y="71.83" width="5.34" height="0.76" transform="translate(793.5 965.62) rotate(-87.12)"/><rect class="cls-1" x="909.98" y="71.86" width="4" height="0.76" transform="translate(792.08 965.9) rotate(-87)"/><rect class="cls-1" x="921.59" y="60.19" width="1.73" height="25.19" transform="translate(801.79 976.92) rotate(-87.02)"/><rect class="cls-1" x="901.11" y="39.2" width="5.34" height="0.76" transform="translate(-0.08 -11.51) rotate(-0.11)"/><rect class="cls-1" x="901.11" y="40.19" width="5.34" height="0.76" transform="translate(-0.08 -11.51) rotate(-0.11)"/><rect class="cls-1" x="901.78" y="39.7" width="4" height="0.76" transform="translate(-0.08 -11.42) rotate(-0.12)"/><polygon class="cls-1" points="901.12 29.31 901.12 28.55 906.46 28.54 906.46 29.3 901.12 29.31"/><rect class="cls-1" x="901.12" y="42.82" width="5.34" height="0.76" transform="translate(-0.13 -10.58) rotate(-0.17)"/><rect class="cls-1" x="901.79" y="42.32" width="4" height="0.76" transform="translate(-0.13 -10.49) rotate(-0.18)"/><rect class="cls-1" x="901.12" y="44.45" width="5.34" height="0.76" transform="translate(-0.09 -11.42) rotate(-0.12)"/><rect class="cls-1" x="901.13" y="32.16" width="5.34" height="0.76"/><rect class="cls-1" x="901.8" y="44.95" width="4" height="0.76" transform="translate(-0.14 -10.49) rotate(-0.18)"/><rect class="cls-1" x="901.13" y="47.08" width="5.34" height="0.76" transform="translate(-0.14 -10.57) rotate(-0.17)"/><rect class="cls-1" x="901.13" y="48.07" width="5.34" height="0.76" transform="matrix(1, 0, 0, 1, -0.14, -10.56)"/><rect class="cls-1" x="901.8" y="47.58" width="4" height="0.76" transform="translate(-0.1 -11.42) rotate(-0.12)"/><rect class="cls-1" x="901.14" y="49.71" width="5.34" height="0.76" transform="translate(-0.15 -10.48) rotate(-0.18)"/><rect class="cls-1" x="901.14" y="50.7" width="5.34" height="0.76" transform="translate(-0.1 -11.42) rotate(-0.12)"/><rect class="cls-1" x="901.81" y="36.92" width="4" height="0.76"/><rect class="cls-1" x="901.14" y="52.33" width="5.34" height="0.76" transform="translate(-0.15 -10.58) rotate(-0.17)"/><polygon class="cls-1" points="901.15 40.81 901.14 40.05 906.49 40.03 906.49 40.8 901.15 40.81"/><rect class="cls-1" x="901.82" y="52.83" width="4" height="0.76" transform="translate(-0.16 -10.56) rotate(-0.17)"/><rect class="cls-1" x="901.15" y="54.96" width="5.34" height="0.76" transform="translate(-0.16 -10.58) rotate(-0.17)"/><polygon class="cls-1" points="901.15 43.44 901.15 42.68 906.49 42.66 906.5 43.42 901.15 43.44"/><rect class="cls-1" x="901.82" y="55.46" width="4" height="0.76" transform="translate(-0.11 -11.51) rotate(-0.11)"/><rect class="cls-1" x="901.16" y="57.59" width="5.34" height="0.76" transform="matrix(1, 0, 0, 1, -0.11, -11.51)"/><rect class="cls-1" x="901.16" y="58.58" width="5.34" height="0.76" transform="translate(-0.29 -8.72) rotate(-0.29)"/><rect class="cls-1" x="901.83" y="58.08" width="4" height="0.76" transform="translate(-0.34 -7.78) rotate(-0.35)"/><rect class="cls-1" x="901.16" y="60.21" width="5.34" height="0.76" transform="translate(-0.24 -9.63) rotate(-0.23)"/><polygon class="cls-1" points="901.17 48.69 901.17 47.93 906.51 47.91 906.51 48.67 901.17 48.69"/><rect class="cls-1" x="901.84" y="60.71" width="4" height="0.76" transform="translate(-0.29 -8.8) rotate(-0.28)"/><rect class="cls-1" x="902.94" y="38" width="1.73" height="25.18" transform="translate(-0.13 -10.89) rotate(-0.15)"/><rect class="cls-1" x="901.5" y="18.23" width="5.34" height="0.76" transform="translate(883.69 909.45) rotate(-89.88)"/><rect class="cls-1" x="900.5" y="18.23" width="5.34" height="0.76" transform="translate(881.78 908.44) rotate(-89.82)"/><rect class="cls-1" x="901.67" y="18.23" width="4" height="0.76" transform="translate(882.36 908.93) rotate(-89.83)"/><rect class="cls-1" x="924.26" y="126.52" width="2.26" height="1.01"/><rect class="cls-1" x="922.15" y="126.79" width="2.26" height="0.48"/><rect class="cls-1" x="923.08" y="125.5" width="0.48" height="1.53"/><rect class="cls-1" x="920.12" y="126.52" width="2.26" height="1.01"/><circle class="cls-1" cx="923.32" cy="125.63" r="0.77"/><rect class="cls-1" x="950.85" y="100.94" width="2.26" height="1.01"/><rect class="cls-1" x="948.73" y="101.2" width="2.26" height="0.48"/><rect class="cls-1" x="949.66" y="99.91" width="0.48" height="1.53"/><rect class="cls-1" x="946.7" y="100.94" width="2.26" height="1.01"/><circle class="cls-1" cx="949.9" cy="100.04" r="0.77"/><rect class="cls-1" x="921.49" y="7" width="2.26" height="1.01"/><rect class="cls-1" x="919.37" y="7.26" width="2.26" height="0.48"/><rect class="cls-1" x="920.3" y="5.97" width="0.48" height="1.53"/><rect class="cls-1" x="917.34" y="7" width="2.26" height="1.01"/><circle class="cls-1" cx="920.54" cy="6.11" r="0.77"/><rect class="cls-1" x="953.08" y="61.43" width="2.26" height="1.01"/><rect class="cls-1" x="950.97" y="61.7" width="2.26" height="0.48"/><rect class="cls-1" x="951.9" y="60.41" width="0.48" height="1.53"/><rect class="cls-1" x="948.94" y="61.43" width="2.26" height="1.01"/><circle class="cls-1" cx="952.14" cy="60.54" r="0.77"/><rect class="cls-1" x="899.46" y="4.62" width="8.2" height="1.42"/><rect class="cls-1" x="894.93" y="18.43" width="7.3" height="0.56" transform="translate(1.69 63.6) rotate(-4.9)"/><rect class="cls-1" x="892.97" y="18.78" width="5.07" height="0.39" transform="translate(1.66 63.33) rotate(-4.9)"/><rect class="cls-1" x="884.14" y="19.53" width="5.07" height="0.39" transform="translate(1.55 62.46) rotate(-4.9)"/><polygon class="cls-1" points="880.87 7.23 888.88 6.54 888.83 5.98 880.82 6.67 880.87 7.23"/><polygon class="cls-1" points="888.21 6.03 895.48 5.41 895.43 4.85 888.16 5.47 888.21 6.03"/><polygon class="cls-1" points="888.31 7.16 895.58 6.53 895.53 5.97 888.26 6.6 888.31 7.16"/><polygon class="cls-1" points="881.85 6.67 886.7 6.26 886.66 5.88 881.82 6.3 881.85 6.67"/><polygon class="cls-1" points="881.91 7.42 886.76 7.01 886.73 6.63 881.88 7.05 881.91 7.42"/><rect class="cls-1" x="880.16" y="123.44" width="5.57" height="1.16"/><rect class="cls-1" x="903.31" y="65.16" width="0.97" height="13.26" transform="translate(785.22 957.36) rotate(-87.03)"/><path class="cls-1" d="M853.66,71.68v0.23c0.12,0,6.26.1,14.42,0.1,7.11,0,15.74-.07,23.24-0.35V71.42C875.2,72,853.87,71.68,853.66,71.68Z" transform="translate(0 -13.28)"/><path class="cls-1" d="M853.54,111.57v0.23c0.16,0,9.36.23,22.12,0.23,9.11,0,20-.12,30.78-0.51v-0.23C880.62,112.24,853.81,111.58,853.54,111.57Z" transform="translate(0 -13.28)"/><path class="cls-1" d="M839.73,137.79V138h5.94c9,0,26-.08,35.08-0.62v-0.23C868.1,137.94,840,137.79,839.73,137.79Z" transform="translate(0 -13.28)"/><path class="cls-1" d="M881.17,20.33V20.09c-12.78.66-41.15-.3-41.43-0.31V20c0.21,0,16,.54,29.31.54C873.61,20.56,877.9,20.5,881.17,20.33Z" transform="translate(0 -13.28)"/><path class="cls-2" d="M1018.4,89.7c4.52,1.31,9.89,1.77,14.28,3.21,2.42,2.49,5.87,2,9.33,2.33,5.23,0.48,10.3,3.64,14.86,4.66-5.9-.12-12.51-0.25-18.07-1.46a2.38,2.38,0,0,1-.58,1.46c0.76,1.57,3.21,1.45,3.79,3.21-5,2.32-10.3-.45-14-1.75,0.23-1.21-1.06-.88-0.87-2a16.12,16.12,0,0,0,5.24-.87,3,3,0,0,1,.58-2c-0.47-.48-1.22.26-2.33,0C1027.06,93.67,1021.89,92.53,1018.4,89.7Z" transform="translate(0 -13.28)"/><path class="cls-2" d="M818.19,148.33a27,27,0,0,1-15.15,5c-2.07,1.77-4.69,1.23-7.58,1.17a16.85,16.85,0,0,1,5.25-4.08c-0.11-1.25-1.89-.83-1.75-2.33A33.21,33.21,0,0,1,818.19,148.33Z" transform="translate(0 -13.28)"/><path class="cls-2" d="M694.34,154.16a8.85,8.85,0,0,0-4.08,2.33c2.13,3.85,5.52,8,5.25,12.53-4.82-1.06-8.24-4.91-12.53-5.54,0-.58-0.8-0.37-0.58-1.17-0.89,1.39.43,3.06,0.29,4.66a27.92,27.92,0,0,1-5.25,0c0.08-1.18-.11-0.66-0.87-0.58-2.1-2.39-1.45-5.82.58-8.16,1.66,0.72,3.34.63,4.08-.87-0.25-.85-0.94.17-1.46,0C682.3,152.07,689.22,151.32,694.34,154.16Z" transform="translate(0 -13.28)"/><path class="cls-2" d="M653.83,222.65c4.91,4,11.72,6.16,12.82,14a30,30,0,0,1,8.16.29,11.66,11.66,0,0,0-4.08,2.62c1.61,7.2-6.18,3.54-10.78,4.37,0,1.42-.16,3.07.29,4.08-2.4-.66-7,0.47-7.29-2.62-0.09-.4-0.73-0.24-1.17-0.29,0.25-1-.87-2.38-1.17-2.91a9.54,9.54,0,0,1,2.33-4.08c1.93,0.34,3.4,2.25,5.54,1.46-0.45-2.36-2-3.68-2-6.41C653.77,231.74,653.08,225.56,653.83,222.65Z" transform="translate(0 -13.28)"/><path class="cls-2" d="M764,227.31a3,3,0,0,0,.58,2c3.09-.37,4.92.52,7.29,0.87a2.38,2.38,0,0,1-1.75.58c1.39,2.49,4.38,3.39,4.66,7-5.81.23-10.36-3.2-16.9-3.21-0.57.41-.43,1.51-0.87,2-2,.36-5.94.37-7.58-1.75,0.84-2.17,4.45-1.57,5.83-3.21-0.2-1.47-1.15-2.11-1.17-3.21C754,223.24,760.36,227,764,227.31Z" transform="translate(0 -13.28)"/><path class="cls-2" d="M1033.56,231.1a30.48,30.48,0,0,0-3.21,1.46c-0.11,4.85-3.35,6.55-4.08,10.78-1.09.07-1.41,0.92-2.33,1.17-0.45-2.86-1.39-5.76-1.46-8.16-1.47,2.21-2.45,1.75-4.37,2.91-0.42-1.09.24-2.61,0-4.37-2.18-.54-2.8-2.64-4.66-3.5C1019.47,229.68,1028,227.14,1033.56,231.1Z" transform="translate(0 -13.28)"/><path class="cls-2" d="M735.14,232.85c1.93-.64,4.15-0.32,5.83-0.58,0.71,0,.06,1-0.29.87a21.84,21.84,0,0,1,7,6.7c-4.22,1.82-10.77-2.59-16.32-1.17-0.54.69,0.21,2,.29,2.91-3.51.4-7.3,0.54-9.33-2.33,0.85-1.68,3.54-1.51,5.25-2.33-1-1.71-3.95-1.49-5.83-2.33C725.43,233.57,731.94,229.79,735.14,232.85Z" transform="translate(0 -13.28)"/><path class="cls-2" d="M787.59,271.61c0.08,1-.54,1.4-0.58,2.33,2.11,0.9,4.46.35,7,1.16-0.25,1-1.92.61-2.33,1.46,1,1.51,2.7,2.35,2.62,5-4.39,1.12-9.34-1.7-14.86-.58-1,.82-0.55,3.14-1.46,4.08-6,1.06-10.75-6.71-5-10.2,1.67,0.53,2.91,2.16,5,1.46-1.1-1.86.95-4.1,0-5,1.3-1.23,1.4-3.65,3.21-4.37C783.65,268.17,786.26,269.25,787.59,271.61Z" transform="translate(0 -13.28)"/><path class="cls-2" d="M530.85,268.4c3.33,3.05.76,9.4-.29,13.11a20.6,20.6,0,0,1,4.66.87c-4,2.27-5.35,5.38-10.49,6.41-2.53.51-5,1.08-7.58,1.75,0.94-1.2,2.42-1.86,3.21-3.21a14.82,14.82,0,0,1-4.08.29,27.81,27.81,0,0,0,8.74-3.79C526.44,278.18,529.53,274.18,530.85,268.4Z" transform="translate(0 -13.28)"/><path class="cls-2" d="M857.83,118c-4.34-2-7.26-6.92-9.62-9.91,5.27,1,10.2,2.43,13.7,5.25,1.78-.75,2.06-3,3.5-4.08,2.09-.15,2.58,1.3,2.91,2.91,0.16,1.42-1.4,1.13-1.46,2.33a8.26,8.26,0,0,0,2.91.58c-2.17,2.84-4.42,5.81-8.74,6.41-3,.41-7.16-0.27-7.87,1.17A36,36,0,0,0,857.83,118Z" transform="translate(0 -13.28)"/><path class="cls-2" d="M567.57,192.34c2.87,2.69-.1,6.47.58,9.62,2.15-.66,4.7-0.07,7,0a52.39,52.39,0,0,0-5.54,3.5c1.91,2.38,2.89,5.13,3.21,9.62a16.69,16.69,0,0,1-11.66-5.54c-0.74.76-.19,2.7,0.29,3.21-1.27.48-1.95,1.55-3.79,1.46-1.32-2.37-.79-7.91,2.33-8.45C560.69,199.45,563.33,195.1,567.57,192.34Z" transform="translate(0 -13.28)"/><path class="cls-2" d="M708.33,251.5a9.71,9.71,0,0,0-3.79,2.91c3.43,1.91,5.12,5.56,8.74,7.29-6.44.66-12.13-1.8-16.9-4.37-1.16.29-.28,1.76-0.29,2.62a10.9,10.9,0,0,1-8.45-.58c0.06-2.66,2.87-2.57,4.66-3.5-0.68-.48-1.7-0.64-2-1.46C695.79,252.68,702.83,249.88,708.33,251.5Z" transform="translate(0 -13.28)"/><path class="cls-2" d="M572.23,308.33c4.49-1.7,9.5,1.19,13.7-1.46-0.82,2.68-5.65,1.35-8.16,2.33-2.3,2.55-4.47,5.24-9,5.54-0.8-.12-0.27,1.09-0.87,1.17a36.7,36.7,0,0,1-8.16-.58c1.86-1.44,5.06-1.54,6.41-3.5,0.12-.7-0.53-0.63-0.29-1.46-5-2.15-7-7.33-8.16-13.41,0.67-1.11,1.56,1.89,1.75.29C563.38,301.25,568.95,303.64,572.23,308.33Z" transform="translate(0 -13.28)"/><polyline class="cls-3" points="1021.95 220.22 1022.88 220.59 1021.9 220.76"/><line class="cls-4" x1="1020.89" y1="220.94" x2="1008.82" y2="223.11"/><line class="cls-5" x1="1007.82" y1="223.29" x2="783.54" y2="263.56"/><polyline class="cls-3" points="782.53 263.74 781.55 263.92 781.14 263.01"/><line class="cls-6" x1="780.71" y1="262.05" x2="775.53" y2="250.52"/><line class="cls-7" x1="775.1" y1="249.56" x2="761.72" y2="219.79"/><polyline class="cls-3" points="761.29 218.83 760.88 217.92 761.37 217.04"/><line class="cls-8" x1="761.84" y1="216.19" x2="767.5" y2="205.94"/><line class="cls-9" x1="767.98" y1="205.09" x2="805.26" y2="137.65"/><polyline class="cls-3" points="805.73 136.79 806.22 135.92 807.15 136.28"/><line class="cls-10" x1="808.05" y1="136.63" x2="818.88" y2="140.87"/><line class="cls-11" x1="819.78" y1="141.22" x2="1021.05" y2="219.87"/><polyline class="cls-3" points="736.94 221.23 736.22 221.92 737.13 221.5"/><line class="cls-12" x1="738.01" y1="221.1" x2="748.68" y2="216.22"/><line class="cls-13" x1="749.57" y1="215.81" x2="1033.09" y2="86.07"/><polyline class="cls-3" points="1033.97 85.67 1034.88 85.25 1033.89 85.36"/><line class="cls-14" x1="1032.91" y1="85.46" x2="1021.15" y2="86.68"/><polyline class="cls-15" points="1020.17 86.78 861.55 103.25 737.66 220.55"/><polyline class="cls-3" points="526.4 271.1 525.55 270.58 525.99 269.69"/><line class="cls-16" x1="526.39" y1="268.87" x2="531.22" y2="259.06"/><line class="cls-17" x1="531.62" y1="258.24" x2="563.37" y2="193.63"/><polyline class="cls-3" points="563.78 192.82 564.22 191.92 564.29 192.92"/><line class="cls-18" x1="564.37" y1="193.97" x2="565.29" y2="206.65"/><line class="cls-19" x1="565.37" y1="207.71" x2="571.45" y2="291.19"/><polyline class="cls-3" points="571.53 292.25 571.6 293.25 572.21 292.45"/><line class="cls-20" x1="572.8" y1="291.69" x2="579.83" y2="282.53"/><line class="cls-21" x1="580.42" y1="281.76" x2="683.02" y2="148.14"/><polyline class="cls-3" points="683.61 147.38 684.22 146.59 683.96 147.55"/><line class="cls-22" x1="683.69" y1="148.53" x2="680.49" y2="160.34"/><line class="cls-23" x1="680.22" y1="161.32" x2="663.41" y2="223.3"/><polyline class="cls-3" points="663.14 224.29 662.88 225.25 663.79 225.67"/><line class="cls-24" x1="664.68" y1="226.08" x2="675.33" y2="231.01"/><polyline class="cls-25" points="676.22 231.42 698.88 241.92 779.64 263.41"/><polyline class="cls-3" points="780.58 263.66 781.55 263.92 780.56 264.07"/><line class="cls-26" x1="779.6" y1="264.23" x2="768" y2="266.05"/><polyline class="cls-27" points="767.04 266.2 569.55 297.25 527.24 271.61"/></svg>