<svg id="circles" xmlns="http://www.w3.org/2000/svg" viewBox="0 0 315.5 160.15"><defs><style>.cls-1,.cls-2,.cls-3,.cls-4{fill:none;stroke-miterlimit:10;}.cls-1{stroke:#fff;}.cls-2{stroke:#7fab16;}.cls-2,.cls-3,.cls-4{stroke-width:2px;}.cls-3{stroke:#cf0b7b;}.cls-4{stroke:#0089e0;}.cls-5{fill:#fff;}</style></defs><title>home-intro-head</title><line class="cls-1" x1="231.91" y1="108.99" x2="140.83" y2="126.41"/><line class="cls-1" x1="216.94" y1="41.11" x2="231.91" y2="108.99"/><line class="cls-1" x1="44.83" y1="65.17" x2="231.91" y2="108.99"/><line class="cls-1" x1="125" y1="40" x2="231.91" y2="108.99"/><line class="cls-1" x1="266.31" y1="75.3" x2="231.91" y2="108.99"/><line class="cls-1" x1="129" y1="133" x2="114.83" y2="145"/><line class="cls-1" x1="126.83" y1="125.58" x2="87.5" y2="119.5"/><line class="cls-1" x1="125.75" y1="129.33" x2="49.83" y2="144.67"/><line class="cls-1" x1="27.33" y1="59.17" x2="7.67" y2="40.17"/><line class="cls-1" x1="209" y1="24.83" x2="194.33" y2="8.83"/><line class="cls-1" x1="223.33" y1="28.83" x2="251.33" y2="17.17"/><line class="cls-1" x1="270.33" y1="69.17" x2="280" y2="37.75"/><line class="cls-1" x1="272.99" y1="72.46" x2="310.25" y2="71.83"/><circle class="cls-2" cx="220.94" cy="53.11" r="9.53" transform="translate(-12.78 29.94) rotate(-12.84)"/><circle class="cls-2" cx="126.56" cy="57" r="6.35" transform="translate(-16.01 9.06) rotate(-12.84)"/><circle class="cls-3" cx="41.68" cy="85.33" r="9.53" transform="translate(-24.43 -9.1) rotate(-12.84)"/><circle class="cls-4" cx="140.37" cy="148.5" r="7.15" transform="translate(-36 14.42) rotate(-12.84)"/><line class="cls-1" x1="233.4" y1="109.19" x2="300.33" y2="148.5"/><circle class="cls-4" cx="312.83" cy="172.5" r="7.15" transform="translate(-40.42 237.91) rotate(-42.79)"/><circle class="cls-5" cx="238.41" cy="129.48" r="10.03" transform="translate(-29.32 35.74) rotate(-12.84)"/><circle class="cls-3" cx="275.81" cy="92.8" r="3.77" transform="translate(-20.23 43.13) rotate(-12.84)"/><circle class="cls-2" cx="45.5" cy="145.5" r="4.25"/><circle class="cls-4" cx="83.5" cy="119" r="4"/><circle class="cls-3" cx="111.17" cy="148.5" r="5"/><circle class="cls-4" cx="5" cy="38.17" r="4"/><circle class="cls-4" cx="256.5" cy="14.5" r="6"/><circle class="cls-2" cx="280.42" cy="35.92" r="2.75"/><circle class="cls-3" cx="191.75" cy="5.75" r="4.75"/><circle class="cls-3" cx="312.25" cy="71.83" r="2.25"/></svg>