<svg id="lines" xmlns="http://www.w3.org/2000/svg" viewBox="0 0 316.5 159.15"><defs><style>.cls-1{fill:none;}.cls-1,.cls-5{stroke:#fff;}.cls-1,.cls-2,.cls-3,.cls-4,.cls-5{stroke-miterlimit:10;}.cls-2,.cls-3,.cls-4,.cls-5,.cls-6{fill:#fff;}.cls-2{stroke:#7fab16;}.cls-2,.cls-3,.cls-4{stroke-width:2px;}.cls-3{stroke:#cf0b7b;}.cls-4{stroke:#0089e0;}</style></defs><title>home-intro-head-white</title><line class="cls-1" x1="218.58" y1="100.99" x2="141.83" y2="126.16"/><line class="cls-1" x1="216" y1="41.5" x2="218.58" y2="100.99"/><line class="cls-1" x1="55.17" y1="69" x2="218.58" y2="100.99"/><line class="cls-1" x1="126" y1="40" x2="218.58" y2="100.99"/><line class="cls-1" x1="267.31" y1="74.05" x2="218.58" y2="100.99"/><line class="cls-1" x1="130" y1="133" x2="115.83" y2="145"/><line class="cls-1" x1="127.83" y1="125.58" x2="88.5" y2="119.5"/><line class="cls-1" x1="127" y1="131.17" x2="69.58" y2="149.67"/><line class="cls-1" x1="36.5" y1="65.25" x2="9" y2="59.83"/><line class="cls-1" x1="210" y1="24.83" x2="195.33" y2="8.83"/><line class="cls-1" x1="224.33" y1="28.83" x2="252.33" y2="17.17"/><line class="cls-1" x1="271.33" y1="69.17" x2="281" y2="37.75"/><line class="cls-1" x1="273.99" y1="72.46" x2="311.25" y2="71.83"/><circle class="cls-2" cx="220.94" cy="53.11" r="9.53" transform="translate(-11.78 29.94) rotate(-12.84)"/><circle class="cls-2" cx="126.56" cy="57" r="6.35" transform="translate(-15.01 9.06) rotate(-12.84)"/><circle class="cls-3" cx="51.17" cy="88.25" r="9.53" transform="translate(-23.84 -6.92) rotate(-12.84)"/><circle class="cls-4" cx="140.37" cy="148.5" r="7.15" transform="translate(-35 14.42) rotate(-12.84)"/><line class="cls-5" x1="220.06" y1="101.19" x2="258" y2="146"/><circle class="cls-4" cx="266.83" cy="171.5" r="7.15" transform="translate(-50.99 206.4) rotate(-42.79)"/><circle class="cls-6" cx="224.08" cy="121.48" r="10.03" transform="translate(-26.9 32.35) rotate(-12.84)"/><circle class="cls-3" cx="275.81" cy="92.8" r="3.77" transform="translate(-19.23 43.13) rotate(-12.84)"/><circle class="cls-2" cx="65.42" cy="151.17" r="4.25"/><circle class="cls-4" cx="84.5" cy="119" r="4"/><circle class="cls-3" cx="112.42" cy="148.5" r="5"/><circle class="cls-4" cx="5" cy="58.83" r="4"/><circle class="cls-4" cx="257.5" cy="14.5" r="6"/><circle class="cls-2" cx="281.42" cy="35.92" r="2.75"/><circle class="cls-3" cx="192.75" cy="5.75" r="4.75"/><circle class="cls-3" cx="313.25" cy="71.83" r="2.25"/></svg>