<svg id="lines" xmlns="http://www.w3.org/2000/svg" viewBox="0 0 936.32 394.19"><defs><style>.cls-1{fill:none;}.cls-1,.cls-2{stroke:#fff;}.cls-1,.cls-2,.cls-3,.cls-4,.cls-5{stroke-miterlimit:10;}.cls-2,.cls-3,.cls-4,.cls-5,.cls-6{fill:#fff;}.cls-3{stroke:#7fab16;}.cls-3,.cls-4,.cls-5{stroke-width:3px;}.cls-4{stroke:#cf0b7b;}.cls-5{stroke:#0089e0;}</style></defs><title>home-intro-head</title><line class="cls-1" x1="818.98" y1="196.53" x2="517.75" y2="308.77"/><line class="cls-1" x1="685.93" y1="108.84" x2="691.78" y2="243.74"/><line class="cls-1" x1="10.57" y1="108.22" x2="691.78" y2="244.3"/><line class="cls-1" x1="396.78" y1="49.58" x2="691.78" y2="243.74"/><path class="cls-1" d="M695.21,254.08" transform="translate(-3.43 -10.35)"/><path class="cls-1" d="M815.6,210.84" transform="translate(-3.43 -10.35)"/><line class="cls-1" x1="501.95" y1="312.94" x2="465.96" y2="381.35"/><line class="cls-1" x1="485.99" y1="307.46" x2="396.8" y2="293.66"/><line class="cls-1" x1="484.1" y1="320.12" x2="353.9" y2="362.07"/><line class="cls-1" x1="672.33" y1="71.04" x2="639.07" y2="34.76"/><line class="cls-1" x1="686.69" y1="89.56" x2="747.16" y2="15.11"/><line class="cls-1" x1="818.98" y1="196.53" x2="860.23" y2="130.46"/><line class="cls-1" x1="818.98" y1="196.53" x2="929.72" y2="255.11"/><line class="cls-2" x1="691.78" y1="243.74" x2="781.18" y2="345.82"/><circle class="cls-3" cx="688.1" cy="99.03" r="21.61" transform="translate(-8.23 145.09) rotate(-12.84)"/><circle class="cls-3" cx="389" cy="52" r="14.41" transform="translate(-5.26 77.43) rotate(-12.84)"/><circle class="cls-4" cx="168.21" cy="150.58" r="21.61" transform="translate(-32.69 30.81) rotate(-12.84)"/><circle class="cls-5" cx="505.37" cy="323.29" r="16.21" transform="translate(-62.65 110.08) rotate(-12.84)"/><circle class="cls-5" cx="792.17" cy="367.51" r="16.21" transform="translate(-42.25 625.57) rotate(-42.79)"/><circle class="cls-4" cx="822.4" cy="206.87" r="8.55" transform="translate(-28.84 177.65) rotate(-12.84)"/><circle class="cls-3" cx="344.45" cy="365.47" r="9.64"/><circle class="cls-5" cx="387.73" cy="292.53" r="9.07"/><circle class="cls-4" cx="465.96" cy="381.35" r="11.34"/><circle class="cls-5" cx="10.57" cy="107.65" r="9.07"/><circle class="cls-5" cx="747.16" cy="15.11" r="13.61"/><circle class="cls-3" cx="860.23" cy="130.46" r="6.24"/><circle class="cls-4" cx="633.21" cy="27.77" r="10.77"/><circle class="cls-4" cx="929.72" cy="255.11" r="5.1"/><circle class="cls-6" cx="692.74" cy="242.26" r="25.7"/></svg>