<svg id="lines" xmlns="http://www.w3.org/2000/svg" viewBox="0 0 354.08 174.5"><defs><style>.cls-1{fill:none;}.cls-1,.cls-5{stroke:#fff;}.cls-1,.cls-2,.cls-3,.cls-4,.cls-5{stroke-miterlimit:10;}.cls-2,.cls-3,.cls-4,.cls-5,.cls-6{fill:#fff;}.cls-2{stroke:#7fab16;}.cls-2,.cls-3,.cls-4{stroke-width:2px;}.cls-3{stroke:#cf0b7b;}.cls-4{stroke:#0089e0;}</style></defs><title>home-intro-head-1</title><line class="cls-1" x1="302" y1="87" x2="169.17" y2="136.5"/><line class="cls-1" x1="243.33" y1="48.33" x2="245.91" y2="107.82"/><line class="cls-1" x1="5" y1="59.92" x2="245.91" y2="108.07"/><line class="cls-1" x1="153.33" y1="46.83" x2="245.91" y2="107.82"/><path class="cls-1" d="M247.91,121.49" transform="translate(-2 -13.67)"/><path class="cls-1" d="M301,102.42" transform="translate(-2 -13.67)"/><line class="cls-1" x1="162.2" y1="138.34" x2="146.33" y2="168.5"/><line class="cls-1" x1="155.17" y1="135.92" x2="115.83" y2="129.83"/><line class="cls-1" x1="154.33" y1="141.5" x2="96.92" y2="160"/><line class="cls-1" x1="237.33" y1="31.67" x2="222.67" y2="15.67"/><line class="cls-1" x1="243.67" y1="39.83" x2="270.33" y2="7"/><line class="cls-1" x1="302" y1="87" x2="320.19" y2="57.87"/><line class="cls-1" x1="302" y1="87" x2="350.83" y2="112.83"/><circle class="cls-2" cx="244.77" cy="53.11" r="9.53" transform="translate(-7.68 42.07) rotate(-12.84)"/><circle class="cls-2" cx="150.39" cy="57" r="6.35" transform="translate(-10.91 21.19) rotate(-12.84)"/><circle class="cls-3" cx="75" cy="88.25" r="9.53" transform="translate(-19.74 5.21) rotate(-12.84)"/><circle class="cls-4" cx="164.2" cy="152" r="7.15" transform="translate(-31.68 26.64) rotate(-12.84)"/><line class="cls-5" x1="245.91" y1="107.82" x2="285.33" y2="152.83"/><circle class="cls-4" cx="290.67" cy="171.5" r="7.15" transform="translate(-41.14 229.42) rotate(-42.79)"/><circle class="cls-3" cx="304" cy="100.67" r="3.77" transform="translate(-16.77 56.43) rotate(-12.84)"/><circle class="cls-2" cx="92.75" cy="161.5" r="4.25"/><circle class="cls-4" cx="111.83" cy="129.33" r="4"/><circle class="cls-3" cx="146.33" cy="168.5" r="5"/><circle class="cls-4" cx="5" cy="59.67" r="4"/><circle class="cls-4" cx="270.33" cy="7" r="6"/><circle class="cls-2" cx="320.19" cy="57.87" r="2.75"/><circle class="cls-3" cx="220.08" cy="12.58" r="4.75"/><circle class="cls-3" cx="350.83" cy="112.83" r="2.25"/><circle class="cls-6" cx="246.33" cy="107.17" r="11.33"/></svg>