<svg id="poles" xmlns="http://www.w3.org/2000/svg" viewBox="0 0 2046.6 686.87"><defs><style>.cls-1{fill:#0089e0;}</style></defs><title>tel-pole</title><path class="cls-1" d="M-72.52,168.49c25.78,0.69,422.83,4,458.54,4,105.82,0,244.94-1.56,356.1-4.08,161.08-3.65,479.79-12,481.17-12v-0.43c-1.38,0-320.09,11.39-481.17,15C630.95,173.47,491.84,173,386,173c-35.7,0-432.76-4.29-458.53-5" transform="translate(72.52 -43.84)"/><path class="cls-1" d="M1275.79,53.8c-1.38,0-320.09,9.39-481.17,13-111.16,2.52-250.27,3.08-356.09,3.08-35.7,0-432.76-3.29-458.53-4v0.44c25.78,0.68,422.83,4,458.54,4,105.82,0,244.94-2.56,356.1-5.08,161.08-3.65,479.79-11,481.17-11V53.8Z" transform="translate(72.52 -43.84)"/><path class="cls-1" d="M1257.49,229.66c-1.38,0-320.09,10.39-481.17,14-111.16,2.52-250.27,2.08-356.09,2.08-35.7,0-432.76-3.29-458.53-4v0.44c25.78,0.68,422.83,4,458.54,4,105.82,0,244.94-1.56,356.1-4.08,161.08-3.65,479.79-12,481.17-12v-0.44Z" transform="translate(72.52 -43.84)"/><path class="cls-1" d="M-67.53,290.3c25.78,0.68,422.83,4,458.54,4,105.82,0,244.94.44,356.1-2.08,161.09-3.65,479.79-14,481.18-14l0-.44c-1.38,0-320.09,8.39-481.17,12-111.17,2.52-250.27,4.08-356.09,4.08-35.7,0-432.76-3.29-458.53-4" transform="translate(72.52 -43.84)"/><path class="cls-1" d="M1974.08,169c-105.82,0-244.93-2.56-356.09-5.08-161.08-3.65-119.79-8-121.17-8v0.43c1.38,0-39.91,4.39,121.17,8,111.17,2.52,250.27,5.08,356.1,5.08" transform="translate(72.52 -43.84)"/><path class="cls-1" d="M1918,66.91c-105.82,0-244.93-2.56-356.09-5.08-161.08-3.65-119.79-8-121.17-8v0.44c1.38,0-39.91,4.39,121.17,8,111.17,2.52,250.27,5.08,356.1,5.08" transform="translate(72.52 -43.84)"/><path class="cls-1" d="M1965.17,242.77c-105.82,0-244.93-2.56-356.09-5.08-161.08-3.65-119.79-8-121.17-8v0.44c1.38,0-39.91,4.39,121.18,8,111.17,2.52,250.27,5.08,356.1,5.08" transform="translate(72.52 -43.84)"/><path class="cls-1" d="M1924.54,290.84c-105.82,0-244.93-2.56-356.09-5.08-161.08-3.64-119.79-8-121.17-8v0.44c1.38,0-39.91,4.39,121.17,8,111.17,2.52,250.28,5.08,356.1,5.08" transform="translate(72.52 -43.84)"/><polygon class="cls-1" points="1372.02 0 1376.47 4.52 1380.93 9.03 1372.02 9.03 1363.12 9.03 1367.57 4.52 1372.02 0"/><polyline class="cls-1" points="1380.13 686.87 1379.53 8.55 1372.24 8.55 1371.8 8.55 1364.51 8.55 1363.9 686.87"/><rect class="cls-1" x="1288.84" y="236.88" width="38.22" height="3.27" transform="translate(198.61 803.65) rotate(-37.6)"/><rect class="cls-1" x="1278.02" y="265.47" width="31.62" height="3.28" transform="translate(178.24 800.97) rotate(-37.6)"/><rect class="cls-1" x="1294.96" y="242.45" width="38.22" height="3.27" transform="translate(543.41 1237.27) rotate(-61.41)"/><rect class="cls-1" x="1271.07" y="260.85" width="30.63" height="3.28" transform="translate(512.85 1222.58) rotate(-61.41)"/><rect class="cls-1" x="1377.41" y="194.68" width="15.83" height="3.17"/><rect class="cls-1" x="1290" y="100.42" width="30.97" height="3.27" transform="translate(281.35 773.8) rotate(-37.6)"/><rect class="cls-1" x="1289.62" y="108.2" width="38.22" height="3.28" transform="translate(658.49 1162.56) rotate(-61.41)"/><rect class="cls-1" x="1372.08" y="60.43" width="15.83" height="3.17"/><rect class="cls-1" x="1360.24" y="104.15" width="22.32" height="3.17"/><rect class="cls-1" x="1360.24" y="110.55" width="22.32" height="3.17"/><rect class="cls-1" x="1364.63" y="14.51" width="15.84" height="3.17"/><rect class="cls-1" x="1369.18" y="176.37" width="15.83" height="3.17"/><rect class="cls-1" x="1369.18" y="137.89" width="15.83" height="3.17"/><rect class="cls-1" x="1309.24" y="109.36" width="1.58" height="130.75" transform="translate(71.89 -39.05) rotate(-0.21)"/><rect class="cls-1" x="1350.98" y="223.27" width="15.83" height="3.17"/><rect class="cls-1" x="1229.44" y="273.01" width="1.42" height="9.99" transform="translate(59.88 19.61) rotate(-2.94)"/><rect class="cls-1" x="1231.29" y="272.92" width="1.42" height="9.99" transform="translate(59.67 20.99) rotate(-3)"/><rect class="cls-1" x="1230.37" y="274.22" width="1.42" height="7.48" transform="translate(59.43 22.3) rotate(-3.06)"/><rect class="cls-1" x="1234.35" y="272.76" width="1.42" height="9.99" transform="translate(59.69 21.09) rotate(-3)"/><rect class="cls-1" x="1236.2" y="272.66" width="1.42" height="9.99" transform="translate(59.69 21.25) rotate(-3)"/><rect class="cls-1" x="1235.27" y="273.97" width="1.42" height="7.48" transform="translate(59.68 21.2) rotate(-3)"/><rect class="cls-1" x="1239.25" y="272.5" width="1.42" height="9.99" transform="translate(59.68 21.54) rotate(-3)"/><rect class="cls-1" x="1241.11" y="272.41" width="1.42" height="9.99" transform="translate(59.69 21.64) rotate(-3)"/><rect class="cls-1" x="1240.18" y="273.71" width="1.42" height="7.48" transform="translate(60.11 19.08) rotate(-2.89)"/><rect class="cls-1" x="1244.16" y="272.25" width="1.42" height="9.99" transform="translate(59.92 20.5) rotate(-2.95)"/><rect class="cls-1" x="1246.01" y="272.15" width="1.42" height="9.99" transform="translate(59.94 20.53) rotate(-2.94)"/><rect class="cls-1" x="1245.09" y="273.45" width="1.42" height="7.48" transform="translate(60.14 19.25) rotate(-2.89)"/><rect class="cls-1" x="1249.07" y="271.99" width="1.42" height="9.99" transform="translate(59.95 20.69) rotate(-2.94)"/><rect class="cls-1" x="1250.92" y="271.9" width="1.42" height="9.99" transform="translate(59.77 21.89) rotate(-2.99)"/><rect class="cls-1" x="1249.99" y="273.2" width="1.42" height="7.48" transform="translate(60.16 19.5) rotate(-2.89)"/><rect class="cls-1" x="1253.97" y="271.74" width="1.42" height="9.99" transform="translate(59.75 22.24) rotate(-3)"/><rect class="cls-1" x="1255.83" y="271.64" width="1.42" height="9.99" transform="translate(59.94 21.24) rotate(-2.95)"/><rect class="cls-1" x="1254.9" y="272.95" width="1.42" height="7.48" transform="translate(60.17 19.81) rotate(-2.89)"/><rect class="cls-1" x="1258.88" y="271.48" width="1.42" height="9.99" transform="translate(59.96 21.32) rotate(-2.95)"/><rect class="cls-1" x="1260.74" y="271.39" width="1.42" height="9.99" transform="translate(59.78 22.59) rotate(-3)"/><rect class="cls-1" x="1259.81" y="272.69" width="1.42" height="7.48" transform="translate(59.99 21.25) rotate(-2.94)"/><rect class="cls-1" x="1263.79" y="271.22" width="1.42" height="9.99" transform="translate(60 21.51) rotate(-2.95)"/><rect class="cls-1" x="1265.64" y="271.13" width="1.42" height="9.99" transform="translate(59.8 22.86) rotate(-3)"/><rect class="cls-1" x="1264.72" y="272.43" width="1.42" height="7.48" transform="translate(60.22 20.23) rotate(-2.89)"/><rect class="cls-1" x="1268.7" y="270.97" width="1.42" height="9.99" transform="translate(60.04 21.64) rotate(-2.94)"/><rect class="cls-1" x="1270.55" y="270.87" width="1.42" height="9.99" transform="translate(59.41 25.62) rotate(-3.11)"/><rect class="cls-1" x="1269.62" y="272.18" width="1.42" height="7.48" transform="translate(60.03 21.75) rotate(-2.94)"/><rect class="cls-1" x="1227.17" y="275.32" width="47.12" height="3.23" transform="translate(59.81 21.59) rotate(-2.98)"/><rect class="cls-1" x="1257.75" y="224.89" width="1.42" height="9.99" transform="translate(62.23 22.25) rotate(-3)"/><rect class="cls-1" x="1259.61" y="224.79" width="1.42" height="9.99" transform="translate(62.21 22.56) rotate(-3.01)"/><rect class="cls-1" x="1258.68" y="226.09" width="1.42" height="7.48" transform="translate(62.19 22.56) rotate(-3.01)"/><rect class="cls-1" x="1262.66" y="224.63" width="1.42" height="9.99" transform="translate(62.4 21.33) rotate(-2.94)"/><rect class="cls-1" x="1264.51" y="224.53" width="1.42" height="9.99" transform="translate(62.4 21.47) rotate(-2.95)"/><rect class="cls-1" x="1263.59" y="225.84" width="1.42" height="7.48" transform="translate(62.23 22.7) rotate(-3)"/><rect class="cls-1" x="1267.57" y="224.37" width="1.42" height="9.99" transform="translate(62.26 22.83) rotate(-3)"/><rect class="cls-1" x="1269.42" y="224.28" width="1.42" height="9.99" transform="translate(62.26 22.92) rotate(-3)"/><rect class="cls-1" x="1268.49" y="225.58" width="1.42" height="7.48" transform="translate(62.26 22.87) rotate(-3)"/><rect class="cls-1" x="1272.47" y="224.12" width="1.42" height="9.99" transform="translate(62.6 20.53) rotate(-2.88)"/><rect class="cls-1" x="1274.33" y="224.02" width="1.42" height="9.99" transform="translate(62.28 23.24) rotate(-3)"/><rect class="cls-1" x="1273.4" y="225.32" width="1.42" height="7.48" transform="translate(62.27 23.2) rotate(-3)"/><rect class="cls-1" x="1277.38" y="223.86" width="1.42" height="9.99" transform="translate(62.63 20.68) rotate(-2.88)"/><rect class="cls-1" x="1279.23" y="223.77" width="1.42" height="9.99" transform="translate(62.3 23.51) rotate(-3)"/><rect class="cls-1" x="1278.31" y="225.07" width="1.42" height="7.48" transform="translate(62.62 20.86) rotate(-2.89)"/><rect class="cls-1" x="1282.29" y="223.61" width="1.42" height="9.99" transform="translate(62.48 22.33) rotate(-2.94)"/><rect class="cls-1" x="1284.14" y="223.51" width="1.42" height="9.99" transform="translate(62.65 21.1) rotate(-2.88)"/><rect class="cls-1" x="1283.21" y="224.82" width="1.42" height="7.48" transform="translate(62.3 23.78) rotate(-3)"/><rect class="cls-1" x="1287.2" y="223.35" width="1.42" height="9.99" transform="translate(62.32 23.99) rotate(-3.01)"/><rect class="cls-1" x="1289.05" y="223.25" width="1.42" height="9.99" transform="translate(62.33 24.08) rotate(-3)"/><rect class="cls-1" x="1288.12" y="224.56" width="1.42" height="7.48" transform="translate(62.66 21.36) rotate(-2.89)"/><rect class="cls-1" x="1292.1" y="223.1" width="1.42" height="9.99" transform="translate(62.66 21.7) rotate(-2.89)"/><polygon class="cls-1" points="1368.15 189.11 1366.74 189.19 1366.22 179.21 1367.63 179.13 1368.15 189.11"/><rect class="cls-1" x="1293.03" y="224.3" width="1.42" height="7.48" transform="translate(62.35 24.22) rotate(-3)"/><rect class="cls-1" x="1297.01" y="222.84" width="1.42" height="9.99" transform="translate(62.53 23.08) rotate(-2.94)"/><rect class="cls-1" x="1298.86" y="222.74" width="1.42" height="9.99" transform="translate(62.21 25.87) rotate(-3.06)"/><rect class="cls-1" x="1297.94" y="224.05" width="1.42" height="7.48" transform="translate(62.69 21.92) rotate(-2.89)"/><rect class="cls-1" x="1255.48" y="227.19" width="47.12" height="3.23" transform="translate(62.36 22.96) rotate(-2.98)"/><rect class="cls-1" x="1224.4" y="151.23" width="1.42" height="9.99" transform="translate(66.02 20.47) rotate(-3)"/><rect class="cls-1" x="1226.25" y="151.14" width="1.42" height="9.99" transform="translate(66.12 19.35) rotate(-2.94)"/><rect class="cls-1" x="1225.33" y="152.44" width="1.42" height="7.48" transform="translate(66.02 20.59) rotate(-3)"/><rect class="cls-1" x="1229.31" y="150.98" width="1.42" height="9.99" transform="translate(66.04 20.79) rotate(-3)"/><rect class="cls-1" x="1231.16" y="150.88" width="1.42" height="9.99" transform="translate(66.06 20.69) rotate(-2.99)"/><rect class="cls-1" x="1230.24" y="152.19" width="1.42" height="7.48" transform="translate(66.04 20.88) rotate(-3)"/><rect class="cls-1" x="1234.22" y="150.72" width="1.42" height="9.99" transform="translate(66.05 21.24) rotate(-3.01)"/><rect class="cls-1" x="1236.07" y="150.62" width="1.42" height="9.99" transform="translate(66.24 18.77) rotate(-2.89)"/><rect class="cls-1" x="1235.14" y="151.93" width="1.42" height="7.48" transform="translate(66.06 21.1) rotate(-3)"/><rect class="cls-1" x="1239.12" y="150.47" width="1.42" height="9.99" transform="translate(66.25 18.93) rotate(-2.89)"/><polygon class="cls-1" points="1315.17 116.48 1313.76 116.55 1313.24 106.58 1314.66 106.5 1315.17 116.48"/><rect class="cls-1" x="1240.05" y="151.68" width="1.42" height="7.48" transform="translate(66.07 21.55) rotate(-3.01)"/><polygon class="cls-1" points="1318.23 116.32 1316.81 116.4 1316.29 106.42 1317.71 106.34 1318.23 116.32"/><rect class="cls-1" x="1245.89" y="150.11" width="1.42" height="9.99" transform="translate(66.11 21.67) rotate(-3)"/><rect class="cls-1" x="1244.96" y="151.42" width="1.42" height="7.48" transform="translate(66.19 20.45) rotate(-2.95)"/><rect class="cls-1" x="1248.94" y="149.96" width="1.42" height="9.99" transform="translate(66.12 21.82) rotate(-3)"/><rect class="cls-1" x="1250.79" y="149.86" width="1.42" height="9.99" transform="translate(66.13 21.83) rotate(-3)"/><rect class="cls-1" x="1249.87" y="151.16" width="1.42" height="7.48" transform="translate(66.03 23.18) rotate(-3.06)"/><rect class="cls-1" x="1253.85" y="149.7" width="1.42" height="9.99" transform="translate(66.14 22.14) rotate(-3)"/><rect class="cls-1" x="1255.7" y="149.6" width="1.42" height="9.99" transform="translate(66.23 21) rotate(-2.95)"/><polygon class="cls-1" points="1328.9 114.51 1327.49 114.58 1327.1 107.11 1328.52 107.04 1328.9 114.51"/><rect class="cls-1" x="1258.75" y="149.44" width="1.42" height="9.99" transform="translate(66.16 22.34) rotate(-3)"/><rect class="cls-1" x="1260.61" y="149.35" width="1.42" height="9.99" transform="matrix(1, -0.05, 0.05, 1, 66.16, 22.56)"/><rect class="cls-1" x="1259.68" y="150.65" width="1.42" height="7.48" transform="translate(65.98 24.99) rotate(-3.12)"/><rect class="cls-1" x="1263.66" y="149.19" width="1.42" height="9.99" transform="translate(66.37 19.89) rotate(-2.88)"/><rect class="cls-1" x="1265.51" y="149.09" width="1.42" height="9.99" transform="translate(66.37 20.07) rotate(-2.88)"/><rect class="cls-1" x="1264.59" y="150.4" width="1.42" height="7.48" transform="translate(66.18 22.7) rotate(-3)"/><rect class="cls-1" x="1222.14" y="153.54" width="47.12" height="3.23" transform="translate(66.14 21.17) rotate(-2.98)"/><rect class="cls-1" x="1312.46" y="92.33" width="9.99" height="1.42" transform="matrix(1, 0, 0, 1, 72.42, -42.48)"/><rect class="cls-1" x="1312.46" y="94.18" width="9.99" height="1.42" transform="translate(72.33 -41.12) rotate(-0.12)"/><rect class="cls-1" x="1313.72" y="93.26" width="7.48" height="1.42" transform="translate(72.24 -39.88) rotate(-0.17)"/><rect class="cls-1" x="1312.47" y="97.24" width="9.99" height="1.42" transform="translate(72.32 -41.12) rotate(-0.12)"/><rect class="cls-1" x="1312.48" y="99.1" width="9.99" height="1.42" transform="translate(72.32 -41.12) rotate(-0.12)"/><rect class="cls-1" x="1313.73" y="98.17" width="7.48" height="1.42" transform="translate(72.33 -41.26) rotate(-0.11)"/><rect class="cls-1" x="1312.48" y="102.16" width="9.99" height="1.42" transform="translate(72.22 -39.89) rotate(-0.17)"/><rect class="cls-1" x="1312.49" y="104.01" width="9.99" height="1.42" transform="translate(72.31 -41.12) rotate(-0.12)"/><rect class="cls-1" x="1313.74" y="103.08" width="7.48" height="1.42" transform="translate(72.41 -42.48) rotate(-0.06)"/><polygon class="cls-1" points="1385.02 64.66 1385.02 63.25 1395.01 63.22 1395.01 64.64 1385.02 64.66"/><rect class="cls-1" x="1312.5" y="108.93" width="9.99" height="1.42" transform="translate(72.31 -41.27) rotate(-0.11)"/><polygon class="cls-1" points="1386.28 65.59 1386.28 64.17 1393.75 64.15 1393.76 65.57 1386.28 65.59"/><polygon class="cls-1" points="1385.03 69.58 1385.03 68.16 1395.02 68.13 1395.02 69.55 1385.03 69.58"/><rect class="cls-1" x="1312.51" y="113.84" width="9.99" height="1.42" transform="matrix(1, 0, 0, 1, 72.3, -41.25)"/><rect class="cls-1" x="1313.77" y="112.91" width="7.48" height="1.42" transform="translate(72.29 -41.12) rotate(-0.12)"/><rect class="cls-1" x="1312.52" y="116.9" width="9.99" height="1.42" transform="translate(72.16 -39.76) rotate(-0.18)"/><rect class="cls-1" x="1312.53" y="118.75" width="9.99" height="1.42" transform="translate(72.29 -41.25) rotate(-0.11)"/><rect class="cls-1" x="1313.78" y="117.83" width="7.48" height="1.42" transform="translate(72.16 -39.76) rotate(-0.18)"/><rect class="cls-1" x="1312.53" y="121.81" width="9.99" height="1.42" transform="translate(72.27 -41.12) rotate(-0.12)"/><rect class="cls-1" x="1312.54" y="123.67" width="9.99" height="1.42" transform="translate(71.91 -37.16) rotate(-0.29)"/><rect class="cls-1" x="1313.79" y="122.74" width="7.48" height="1.42" transform="translate(72.16 -39.89) rotate(-0.17)"/><rect class="cls-1" x="1312.55" y="126.73" width="9.99" height="1.42" transform="translate(72.13 -39.76) rotate(-0.18)"/><polygon class="cls-1" points="1385.08 86.18 1385.07 84.76 1395.06 84.73 1395.07 86.15 1385.08 86.18"/><rect class="cls-1" x="1313.81" y="127.65" width="7.48" height="1.42" transform="translate(72.01 -38.53) rotate(-0.23)"/><rect class="cls-1" x="1312.56" y="131.64" width="9.99" height="1.42" transform="translate(71.87 -37.19) rotate(-0.29)"/><rect class="cls-1" x="1312.57" y="133.5" width="9.99" height="1.42" transform="translate(72.12 -39.9) rotate(-0.17)"/><rect class="cls-1" x="1313.82" y="132.57" width="7.48" height="1.42" transform="matrix(1, 0, 0, 1, 71.99, -38.53)"/><rect class="cls-1" x="1315.89" y="90.09" width="3.24" height="47.12" transform="translate(72.23 -40.4) rotate(-0.15)"/><rect class="cls-1" x="1279.63" y="49.26" width="1.42" height="9.99" transform="translate(72.36 -40) rotate(-0.17)"/><rect class="cls-1" x="1281.49" y="49.26" width="1.42" height="9.99" transform="translate(72.42 -41.32) rotate(-0.11)"/><rect class="cls-1" x="1280.56" y="50.51" width="1.42" height="7.48" transform="translate(72.42 -41.34) rotate(-0.11)"/><rect class="cls-1" x="1266.06" y="236.71" width="4.22" height="1.89"/><rect class="cls-1" x="1270.02" y="237.21" width="4.22" height="0.9"/><rect class="cls-1" x="1271.6" y="234.8" width="0.9" height="2.86"/><rect class="cls-1" x="1273.81" y="236.71" width="4.22" height="1.89"/><circle class="cls-1" cx="1272.04" cy="235.05" r="1.44"/><rect class="cls-1" x="1286.17" y="188.84" width="4.22" height="1.89"/><rect class="cls-1" x="1290.13" y="189.33" width="4.22" height="0.9"/><rect class="cls-1" x="1291.7" y="186.92" width="0.9" height="2.86"/><rect class="cls-1" x="1293.92" y="188.84" width="4.22" height="1.89"/><circle class="cls-1" cx="1292.16" cy="187.17" r="1.44"/><rect class="cls-1" x="1256.69" y="114.93" width="4.22" height="1.89"/><rect class="cls-1" x="1260.65" y="115.43" width="4.22" height="0.9"/><rect class="cls-1" x="1262.22" y="113.02" width="0.9" height="2.86"/><rect class="cls-1" x="1264.44" y="114.93" width="4.22" height="1.89"/><circle class="cls-1" cx="1262.68" cy="113.27" r="1.44"/><rect class="cls-1" x="1312.26" y="13.09" width="4.22" height="1.89"/><rect class="cls-1" x="1316.22" y="13.59" width="4.23" height="0.9"/><rect class="cls-1" x="1317.8" y="11.18" width="0.9" height="2.86"/><rect class="cls-1" x="1320.02" y="13.09" width="4.22" height="1.89"/><circle class="cls-1" cx="1318.25" cy="11.42" r="1.44"/><rect class="cls-1" x="1346.32" y="9.1" width="15.34" height="2.65"/><rect class="cls-1" x="1312.47" y="145.85" width="1.06" height="13.65" transform="translate(1204.82 1418.28) rotate(-88.78)"/><rect class="cls-1" x="1318.4" y="148.06" width="0.73" height="9.48" transform="matrix(0.02, -1, 1, 0.02, 1210.47, 1424.18)"/><polygon class="cls-1" points="1412.59 109.79 1403.11 109.59 1403.13 108.85 1412.61 109.06 1412.59 109.79"/><rect class="cls-1" x="1338.24" y="145.71" width="1.06" height="15.05" transform="translate(1229.61 1444.6) rotate(-88.78)"/><polygon class="cls-1" points="1404.94 108.73 1391.29 108.44 1391.32 107.38 1404.96 107.67 1404.94 108.73"/><polygon class="cls-1" points="1404.9 110.84 1391.25 110.55 1391.27 109.5 1404.92 109.78 1404.9 110.84"/><polygon class="cls-1" points="1416.89 109.16 1407.8 108.97 1407.81 108.27 1416.9 108.46 1416.89 109.16"/><rect class="cls-1" x="1339.45" y="149.41" width="0.7" height="9.1" transform="matrix(0.02, -1, 1, 0.02, 1229.77, 1446.32)"/><rect class="cls-1" x="1312.52" y="219.38" width="1.06" height="13.65" transform="translate(1088.44 1481.21) rotate(-86.89)"/><polygon class="cls-1" points="1396.05 183.31 1386.58 182.8 1386.62 182.06 1396.08 182.58 1396.05 183.31"/><polygon class="cls-1" points="1412.6 184.22 1403.14 183.7 1403.17 182.97 1412.64 183.48 1412.6 184.22"/><polygon class="cls-1" points="1418.8 184.71 1403.77 183.9 1403.83 182.84 1418.86 183.66 1418.8 184.71"/><polygon class="cls-1" points="1404.99 182.9 1391.36 182.16 1391.42 181.11 1405.05 181.85 1404.99 182.9"/><rect class="cls-1" x="1325.04" y="221.12" width="1.06" height="13.65" transform="translate(1098.14 1495.27) rotate(-86.87)"/><polygon class="cls-1" points="1416.92 183.73 1407.83 183.23 1407.87 182.53 1416.96 183.03 1416.92 183.73"/><rect class="cls-1" x="1339.45" y="223.82" width="0.7" height="9.1" transform="translate(1111.47 1509.95) rotate(-86.88)"/><rect class="cls-1" x="1286.61" y="269.55" width="1.05" height="13.65" transform="matrix(0.02, -1, 1, 0.02, 1061.88, 1514.89)"/><rect class="cls-1" x="1292.54" y="271.73" width="0.73" height="9.48" transform="translate(1067.15 1520.69) rotate(-89.03)"/><rect class="cls-1" x="1309.11" y="272.01" width="0.73" height="9.48" transform="translate(1083.17 1537.53) rotate(-89.03)"/><rect class="cls-1" x="1312.38" y="269.28" width="1.06" height="15.05" transform="translate(1086.95 1541.12) rotate(-89.05)"/><rect class="cls-1" x="1299.22" y="268.7" width="1.05" height="13.65" transform="translate(1075.26 1526.7) rotate(-89.05)"/><rect class="cls-1" x="1299.18" y="270.82" width="1.06" height="13.65" transform="translate(1072.85 1528.68) rotate(-89.04)"/><polygon class="cls-1" points="1391.03 232.71 1381.93 232.56 1381.95 231.85 1391.04 232 1391.03 232.71"/><polygon class="cls-1" points="1391.01 234.12 1381.91 233.97 1381.92 233.26 1391.02 233.41 1391.01 234.12"/><polygon class="cls-1" points="1366.45 11.35 1352.83 10.54 1352.89 9.48 1366.51 10.3 1366.45 11.35"/><rect class="cls-1" x="1292.54" y="49.86" width="0.73" height="9.48" transform="translate(1233.35 1298.07) rotate(-86.56)"/><polygon class="cls-1" points="1386.69 12.41 1377.23 11.84 1377.27 11.11 1386.73 11.68 1386.69 12.41"/><rect class="cls-1" x="1312.36" y="48.28" width="1.06" height="15.05" transform="translate(1250.75 1319.12) rotate(-86.55)"/><rect class="cls-1" x="1299.26" y="47.13" width="1.05" height="13.65" transform="translate(1240.42 1304.32) rotate(-86.56)"/><rect class="cls-1" x="1299.13" y="49.24" width="1.06" height="13.65" transform="translate(1237.93 1306.15) rotate(-86.55)"/><polygon class="cls-1" points="1391.01 11.95 1381.93 11.4 1381.97 10.7 1391.05 11.25 1391.01 11.95"/><rect class="cls-1" x="1313.53" y="52.02" width="0.7" height="9.1" transform="translate(1251.07 1320.85) rotate(-86.56)"/><rect class="cls-1" x="1345.78" y="230.94" width="10.41" height="2.17"/><rect class="cls-1" x="1268.2" y="152.39" width="24.82" height="1.82" transform="translate(66.29 22.78) rotate(-2.97)"/><polygon class="cls-1" points="1494.03 0 1498.48 4.52 1502.93 9.03 1494.03 9.03 1485.12 9.03 1489.58 4.52 1494.03 0"/><polyline class="cls-1" points="1502.15 686.87 1501.53 8.55 1494.25 8.55 1493.81 8.55 1486.52 8.55 1485.91 686.87"/><rect class="cls-1" x="1410.85" y="236.88" width="38.22" height="3.28" transform="translate(223.98 878.14) rotate(-37.6)"/><rect class="cls-1" x="1400.04" y="265.47" width="31.62" height="3.28" transform="translate(203.58 875.41) rotate(-37.6)"/><rect class="cls-1" x="1416.97" y="242.45" width="38.22" height="3.28" transform="translate(606.99 1344.37) rotate(-61.41)"/><rect class="cls-1" x="1393.08" y="260.85" width="30.63" height="3.28" transform="translate(576.43 1329.68) rotate(-61.41)"/><rect class="cls-1" x="1499.42" y="194.68" width="15.83" height="3.17"/><rect class="cls-1" x="1412.01" y="100.42" width="30.97" height="3.27" transform="translate(306.66 848.21) rotate(-37.59)"/><rect class="cls-1" x="1411.63" y="108.2" width="38.22" height="3.28" transform="translate(722.11 1269.7) rotate(-61.41)"/><rect class="cls-1" x="1494.09" y="60.43" width="15.83" height="3.17"/><rect class="cls-1" x="1482.25" y="104.15" width="22.69" height="3.17"/><rect class="cls-1" x="1482.25" y="110.55" width="22.69" height="3.17"/><rect class="cls-1" x="1486.64" y="14.51" width="15.83" height="3.17"/><rect class="cls-1" x="1491.19" y="176.37" width="15.83" height="3.17"/><rect class="cls-1" x="1491.19" y="137.89" width="15.83" height="3.17"/><rect class="cls-1" x="1431.25" y="109.36" width="1.58" height="130.75" transform="translate(71.89 -38.57) rotate(-0.21)"/><rect class="cls-1" x="1473" y="223.27" width="15.83" height="3.17"/><rect class="cls-1" x="1440.41" y="277.3" width="9.99" height="1.42" transform="translate(1166.08 1663.4) rotate(-87.06)"/><rect class="cls-1" x="1438.55" y="277.2" width="9.99" height="1.42" transform="translate(1162.94 1661.09) rotate(-87)"/><rect class="cls-1" x="1440.74" y="277.25" width="7.48" height="1.42" transform="translate(1162.3 1661.7) rotate(-86.94)"/><rect class="cls-1" x="1435.5" y="277.05" width="9.99" height="1.42" transform="translate(1160.06 1657.85) rotate(-86.99)"/><rect class="cls-1" x="1433.65" y="276.95" width="9.99" height="1.42" transform="translate(1158.48 1655.93) rotate(-87)"/><rect class="cls-1" x="1435.83" y="277" width="7.48" height="1.42" transform="translate(1159.45 1656.94) rotate(-87)"/><rect class="cls-1" x="1430.59" y="276.79" width="9.99" height="1.42" transform="translate(1155.89 1652.77) rotate(-87)"/><rect class="cls-1" x="1428.74" y="276.69" width="9.99" height="1.42" transform="translate(1154.08 1650.79) rotate(-87)"/><rect class="cls-1" x="1430.92" y="276.74" width="7.48" height="1.42" transform="translate(1157.69 1652.45) rotate(-87.11)"/><rect class="cls-1" x="1425.68" y="276.53" width="9.99" height="1.42" transform="translate(1152.8 1647.95) rotate(-87.05)"/><rect class="cls-1" x="1423.83" y="276.44" width="9.99" height="1.42" transform="translate(1151.07 1645.99) rotate(-87.05)"/><rect class="cls-1" x="1426.01" y="276.49" width="7.48" height="1.42" transform="translate(1153.43 1647.34) rotate(-87.11)"/><rect class="cls-1" x="1420.78" y="276.28" width="9.99" height="1.42" transform="translate(1148.4 1642.81) rotate(-87.05)"/><rect class="cls-1" x="1418.92" y="276.18" width="9.99" height="1.42" transform="translate(1145.36 1640.52) rotate(-87)"/><rect class="cls-1" x="1421.11" y="276.23" width="7.48" height="1.42" transform="translate(1149.24 1642.25) rotate(-87.12)"/><rect class="cls-1" x="1415.87" y="276.02" width="9.99" height="1.42" transform="translate(1142.62 1637.32) rotate(-87)"/><rect class="cls-1" x="1414.02" y="275.93" width="9.99" height="1.42" transform="translate(1142.25 1635.7) rotate(-87.05)"/><rect class="cls-1" x="1416.2" y="275.97" width="7.48" height="1.42" transform="translate(1144.69 1637.07) rotate(-87.12)"/><rect class="cls-1" x="1410.96" y="275.77" width="9.99" height="1.42" transform="translate(1139.68 1632.54) rotate(-87.06)"/><rect class="cls-1" x="1409.11" y="275.67" width="9.99" height="1.42" transform="translate(1136.67 1630.26) rotate(-87)"/><rect class="cls-1" x="1411.29" y="275.72" width="7.48" height="1.42" transform="translate(1138.83 1631.57) rotate(-87.06)"/><rect class="cls-1" x="1406.06" y="275.51" width="9.99" height="1.42" transform="translate(1135.34 1627.41) rotate(-87.06)"/><rect class="cls-1" x="1404.2" y="275.42" width="9.99" height="1.42" transform="translate(1132.03 1625.06) rotate(-86.99)"/><rect class="cls-1" x="1406.38" y="275.46" width="7.48" height="1.42" transform="translate(1135.89 1626.78) rotate(-87.12)"/><rect class="cls-1" x="1401.15" y="275.26" width="9.99" height="1.42" transform="translate(1130.79 1622.23) rotate(-87.05)"/><rect class="cls-1" x="1399.29" y="275.16" width="9.99" height="1.42" transform="translate(1124.93 1619.23) rotate(-86.88)"/><rect class="cls-1" x="1401.48" y="275.21" width="7.48" height="1.42" transform="translate(1130.04 1621.28) rotate(-87.06)"/><rect class="cls-1" x="1423.2" y="253.38" width="3.23" height="47.12" transform="translate(1146.67 1641.59) rotate(-87.02)"/><rect class="cls-1" x="1481.94" y="229.17" width="9.99" height="1.42" transform="translate(1252.1 1658.91) rotate(-87)"/><rect class="cls-1" x="1480.08" y="229.07" width="9.99" height="1.42" transform="translate(1250.19 1656.92) rotate(-86.99)"/><rect class="cls-1" x="1482.27" y="229.12" width="7.48" height="1.42" transform="translate(1251.12 1657.91) rotate(-87)"/><rect class="cls-1" x="1477.03" y="228.91" width="9.99" height="1.42" transform="translate(1249.14 1654.07) rotate(-87.06)"/><rect class="cls-1" x="1475.18" y="228.82" width="9.99" height="1.42" transform="translate(1247.34 1652.1) rotate(-87.05)"/><rect class="cls-1" x="1477.36" y="228.87" width="7.48" height="1.42" transform="translate(1246.78 1652.78) rotate(-87)"/><rect class="cls-1" x="1472.12" y="228.66" width="9.99" height="1.42" transform="translate(1243.23 1648.61) rotate(-87)"/><rect class="cls-1" x="1470.27" y="228.56" width="9.99" height="1.42" transform="translate(1241.58 1646.67) rotate(-87)"/><rect class="cls-1" x="1472.45" y="228.61" width="7.48" height="1.42" transform="translate(1242.32 1647.62) rotate(-86.99)"/><rect class="cls-1" x="1467.21" y="228.4" width="9.99" height="1.42" transform="translate(1241.83 1644.09) rotate(-87.12)"/><rect class="cls-1" x="1465.36" y="228.31" width="9.99" height="1.42" transform="translate(1237.25 1641.54) rotate(-87)"/><rect class="cls-1" x="1467.54" y="228.36" width="7.48" height="1.42" transform="translate(1238.16 1642.53) rotate(-87)"/><rect class="cls-1" x="1462.31" y="228.15" width="9.99" height="1.42" transform="translate(1237.46 1638.96) rotate(-87.12)"/><rect class="cls-1" x="1460.45" y="228.05" width="9.99" height="1.42" transform="translate(1232.78 1636.38) rotate(-87)"/><rect class="cls-1" x="1462.63" y="228.1" width="7.48" height="1.42" transform="translate(1236.67 1638) rotate(-87.12)"/><rect class="cls-1" x="1457.4" y="227.89" width="9.99" height="1.42" transform="translate(1231.53 1633.5) rotate(-87.06)"/><rect class="cls-1" x="1455.55" y="227.8" width="9.99" height="1.42" transform="translate(1231.29 1631.85) rotate(-87.11)"/><rect class="cls-1" x="1457.73" y="227.84" width="7.48" height="1.42" transform="translate(1229.13 1632.2) rotate(-86.99)"/><rect class="cls-1" x="1452.49" y="227.64" width="9.99" height="1.42" transform="translate(1225.58 1628.03) rotate(-87)"/><rect class="cls-1" x="1450.64" y="227.54" width="9.99" height="1.42" transform="translate(1223.84 1626.07) rotate(-86.99)"/><rect class="cls-1" x="1452.82" y="227.59" width="7.48" height="1.42" transform="translate(1227.72 1627.68) rotate(-87.11)"/><rect class="cls-1" x="1447.59" y="227.38" width="9.99" height="1.42" transform="translate(1224 1623.48) rotate(-87.11)"/><polygon class="cls-1" points="1522.28 189.11 1523.7 189.19 1524.22 179.21 1522.8 179.13 1522.28 189.11"/><rect class="cls-1" x="1447.91" y="227.33" width="7.48" height="1.42" transform="translate(1220.5 1621.94) rotate(-87)"/><rect class="cls-1" x="1442.68" y="227.13" width="9.99" height="1.42" transform="translate(1218.11 1618.02) rotate(-87.05)"/><rect class="cls-1" x="1440.82" y="227.03" width="9.99" height="1.42" transform="translate(1213.8 1615.52) rotate(-86.94)"/><rect class="cls-1" x="1443.01" y="227.08" width="7.48" height="1.42" transform="translate(1218.98 1617.41) rotate(-87.12)"/><rect class="cls-1" x="1464.73" y="205.25" width="3.23" height="47.12" transform="translate(1234.15 1637.45) rotate(-87.02)"/><rect class="cls-1" x="1489.99" y="155.52" width="9.99" height="1.42" transform="translate(1333.28 1597.16) rotate(-87)"/><rect class="cls-1" x="1488.14" y="155.42" width="9.99" height="1.42" transform="translate(1333.08 1595.45) rotate(-87.06)"/><rect class="cls-1" x="1490.32" y="155.47" width="7.48" height="1.42" transform="translate(1332.12 1596.13) rotate(-86.99)"/><rect class="cls-1" x="1485.08" y="155.26" width="9.99" height="1.42" transform="translate(1328.8 1592) rotate(-87)"/><rect class="cls-1" x="1483.23" y="155.17" width="9.99" height="1.42" transform="translate(1327.06 1590.04) rotate(-86.99)"/><rect class="cls-1" x="1485.41" y="155.22" width="7.48" height="1.42" transform="translate(1328.07 1591.05) rotate(-87)"/><rect class="cls-1" x="1480.17" y="155.01" width="9.99" height="1.42" transform="translate(1324.49 1586.87) rotate(-87)"/><rect class="cls-1" x="1478.32" y="154.91" width="9.99" height="1.42" transform="translate(1325.56 1585.36) rotate(-87.11)"/><rect class="cls-1" x="1480.5" y="154.96" width="7.48" height="1.42" transform="translate(1323.66 1585.9) rotate(-87)"/><rect class="cls-1" x="1475.27" y="154.75" width="9.99" height="1.42" transform="translate(1322.97 1582.18) rotate(-87.11)"/><polygon class="cls-1" points="1549.96 116.48 1551.38 116.55 1551.9 106.58 1550.48 106.5 1549.96 116.48"/><rect class="cls-1" x="1475.6" y="154.71" width="7.48" height="1.42" transform="translate(1319.11 1580.73) rotate(-87)"/><polygon class="cls-1" points="1546.91 116.32 1548.32 116.4 1548.85 106.42 1547.43 106.34 1546.91 116.32"/><rect class="cls-1" x="1468.51" y="154.4" width="9.99" height="1.42" transform="translate(1313.95 1574.63) rotate(-87)"/><rect class="cls-1" x="1470.69" y="154.45" width="7.48" height="1.42" transform="translate(1316.3 1575.84) rotate(-87.06)"/><rect class="cls-1" x="1465.45" y="154.24" width="9.99" height="1.42" transform="translate(1311.3 1571.44) rotate(-87)"/><rect class="cls-1" x="1463.6" y="154.14" width="9.99" height="1.42" transform="translate(1309.66 1569.5) rotate(-87)"/><rect class="cls-1" x="1465.78" y="154.19" width="7.48" height="1.42" transform="translate(1308.87 1570.22) rotate(-86.94)"/><rect class="cls-1" x="1460.55" y="153.99" width="9.99" height="1.42" transform="translate(1306.84 1566.29) rotate(-87)"/><rect class="cls-1" x="1458.69" y="153.89" width="9.99" height="1.42" transform="translate(1306.66 1564.58) rotate(-87.06)"/><polygon class="cls-1" points="1536.23 114.51 1537.65 114.58 1538.04 107.11 1536.62 107.04 1536.23 114.51"/><rect class="cls-1" x="1455.64" y="153.73" width="9.99" height="1.42" transform="translate(1302.49 1561.16) rotate(-87)"/><rect class="cls-1" x="1453.79" y="153.63" width="9.99" height="1.42" transform="translate(1300.86 1559.22) rotate(-87)"/><rect class="cls-1" x="1455.97" y="153.68" width="7.48" height="1.42" transform="translate(1298.93 1559.75) rotate(-86.89)"/><rect class="cls-1" x="1450.73" y="153.48" width="9.99" height="1.42" transform="translate(1300.96 1556.46) rotate(-87.11)"/><rect class="cls-1" x="1448.88" y="153.38" width="9.99" height="1.42" transform="translate(1299.35 1554.53) rotate(-87.12)"/><rect class="cls-1" x="1451.06" y="153.43" width="7.48" height="1.42" transform="translate(1297.21 1555.03) rotate(-87)"/><rect class="cls-1" x="1472.78" y="131.6" width="3.23" height="47.12" transform="translate(1315.28 1575.66) rotate(-87.02)"/><rect class="cls-1" x="1434.47" y="92.33" width="9.99" height="1.42" transform="translate(72.34 -41.01) rotate(-0.11)"/><rect class="cls-1" x="1434.48" y="94.18" width="9.99" height="1.42" transform="matrix(1, 0, 0, 1, 72.34, -41.02)"/><rect class="cls-1" x="1435.73" y="93.26" width="7.48" height="1.42" transform="matrix(1, 0, 0, 1, 72.33, -40.87)"/><polygon class="cls-1" points="1507 54.84 1507 53.42 1516.99 53.39 1517 54.81 1507 54.84"/><rect class="cls-1" x="1434.49" y="99.1" width="9.99" height="1.42" transform="translate(72.23 -39.53) rotate(-0.17)"/><rect class="cls-1" x="1435.74" y="98.17" width="7.48" height="1.42" transform="translate(72.22 -39.39) rotate(-0.18)"/><rect class="cls-1" x="1434.5" y="102.16" width="9.99" height="1.42" transform="matrix(1, 0, 0, 1, 72.31, -40.86)"/><rect class="cls-1" x="1507.02" y="60.18" width="9.99" height="1.42"/><rect class="cls-1" x="1435.75" y="103.08" width="7.48" height="1.42" transform="matrix(1, 0, 0, 1, 72.21, -39.38)"/><rect class="cls-1" x="1434.51" y="107.07" width="9.99" height="1.42" transform="translate(72.2 -39.52) rotate(-0.17)"/><rect class="cls-1" x="1434.51" y="108.93" width="9.99" height="1.42" transform="translate(72.2 -39.5) rotate(-0.17)"/><rect class="cls-1" x="1435.76" y="108" width="7.48" height="1.42" transform="translate(72.3 -40.86) rotate(-0.12)"/><rect class="cls-1" x="1434.52" y="111.98" width="9.99" height="1.42" transform="translate(72.18 -39.38) rotate(-0.18)"/><rect class="cls-1" x="1434.53" y="113.84" width="9.99" height="1.42" transform="translate(72.29 -40.86) rotate(-0.12)"/><rect class="cls-1" x="1508.3" y="69.07" width="7.48" height="1.42"/><rect class="cls-1" x="1434.53" y="116.9" width="9.99" height="1.42" transform="translate(72.17 -39.53) rotate(-0.17)"/><polygon class="cls-1" points="1507.06 76.35 1507.06 74.93 1517.05 74.9 1517.05 76.32 1507.06 76.35"/><rect class="cls-1" x="1435.79" y="117.83" width="7.48" height="1.42" transform="translate(72.17 -39.51) rotate(-0.17)"/><rect class="cls-1" x="1434.55" y="121.81" width="9.99" height="1.42" transform="translate(72.16 -39.53) rotate(-0.17)"/><polygon class="cls-1" points="1507.08 81.26 1507.07 79.84 1517.06 79.82 1517.07 81.24 1507.08 81.26"/><rect class="cls-1" x="1435.8" y="122.74" width="7.48" height="1.42" transform="translate(72.28 -41.01) rotate(-0.11)"/><rect class="cls-1" x="1434.56" y="126.73" width="9.99" height="1.42" transform="translate(72.27 -41.01) rotate(-0.11)"/><rect class="cls-1" x="1434.56" y="128.58" width="9.99" height="1.42" transform="translate(71.89 -36.57) rotate(-0.29)"/><rect class="cls-1" x="1435.82" y="127.65" width="7.48" height="1.42" transform="translate(71.76 -35.07) rotate(-0.35)"/><rect class="cls-1" x="1434.57" y="131.64" width="9.99" height="1.42" transform="translate(72 -38.02) rotate(-0.23)"/><polygon class="cls-1" points="1507.1 91.09 1507.1 89.67 1517.09 89.65 1517.09 91.06 1507.1 91.09"/><rect class="cls-1" x="1435.83" y="132.57" width="7.48" height="1.42" transform="translate(71.88 -36.7) rotate(-0.28)"/><rect class="cls-1" x="1437.9" y="90.09" width="3.24" height="47.12" transform="translate(72.22 -40.03) rotate(-0.15)"/><rect class="cls-1" x="1435.19" y="53.09" width="9.99" height="1.42" transform="translate(1455.93 1450.04) rotate(-89.88)"/><rect class="cls-1" x="1433.34" y="53.09" width="9.99" height="1.42" transform="translate(1452.61 1448.12) rotate(-89.82)"/><rect class="cls-1" x="1435.52" y="53.09" width="7.48" height="1.42" transform="translate(1453.68 1449.06) rotate(-89.83)"/><rect class="cls-1" x="1550.31" y="236.71" width="4.23" height="1.89"/><rect class="cls-1" x="1546.35" y="237.21" width="4.22" height="0.9"/><rect class="cls-1" x="1548.1" y="234.8" width="0.9" height="2.86"/><rect class="cls-1" x="1542.56" y="236.71" width="4.22" height="1.89"/><circle class="cls-1" cx="1548.55" cy="235.05" r="1.44"/><rect class="cls-1" x="1600.04" y="188.84" width="4.22" height="1.89"/><rect class="cls-1" x="1596.08" y="189.33" width="4.22" height="0.9"/><rect class="cls-1" x="1597.83" y="186.92" width="0.9" height="2.86"/><rect class="cls-1" x="1592.29" y="188.84" width="4.22" height="1.89"/><circle class="cls-1" cx="1598.28" cy="187.17" r="1.44"/><rect class="cls-1" x="1545.11" y="13.09" width="4.22" height="1.89"/><rect class="cls-1" x="1541.15" y="13.59" width="4.22" height="0.9"/><rect class="cls-1" x="1542.9" y="11.18" width="0.9" height="2.86"/><rect class="cls-1" x="1537.36" y="13.09" width="4.22" height="1.89"/><circle class="cls-1" cx="1543.35" cy="11.42" r="1.44"/><rect class="cls-1" x="1604.23" y="114.93" width="4.22" height="1.89"/><rect class="cls-1" x="1600.27" y="115.43" width="4.22" height="0.9"/><rect class="cls-1" x="1602.01" y="113.02" width="0.9" height="2.86"/><rect class="cls-1" x="1596.47" y="114.93" width="4.22" height="1.89"/><circle class="cls-1" cx="1602.46" cy="113.27" r="1.44"/><rect class="cls-1" x="1503.91" y="8.64" width="15.34" height="2.65"/><rect class="cls-1" x="1422.91" y="53.46" width="13.65" height="1.06" transform="translate(73.14 78.58) rotate(-4.9)"/><rect class="cls-1" x="1419.24" y="54.12" width="9.48" height="0.73" transform="translate(73.07 78.08) rotate(-4.9)"/><rect class="cls-1" x="1402.72" y="55.53" width="9.48" height="0.73" transform="translate(72.88 76.48) rotate(-4.9)"/><polygon class="cls-1" points="1469.11 13.53 1484.11 12.24 1484.02 11.19 1469.02 12.48 1469.11 13.53"/><polygon class="cls-1" points="1482.86 11.29 1496.46 10.12 1496.37 9.07 1482.77 10.24 1482.86 11.29"/><polygon class="cls-1" points="1483.04 13.39 1496.64 12.22 1496.55 11.17 1482.95 12.34 1483.04 13.39"/><polygon class="cls-1" points="1470.96 12.49 1480.03 11.71 1479.96 11.01 1470.9 11.79 1470.96 12.49"/><polygon class="cls-1" points="1471.08 13.89 1480.15 13.11 1480.09 12.41 1471.02 13.19 1471.08 13.89"/><rect class="cls-1" x="1467.79" y="230.94" width="10.41" height="2.17"/><rect class="cls-1" x="1438.58" y="140.9" width="1.82" height="24.81" transform="translate(1284.25 1539.07) rotate(-87.03)"/><path class="cls-1" d="M1345.69,153.09v0.43c0.22,0,11.71.19,27,.19,13.3,0,29.45-.14,43.47-0.66l0-.43C1386,153.73,1346.09,153.09,1345.69,153.09Z" transform="translate(72.52 -43.84)"/><path class="cls-1" d="M1345.47,227.73v0.44c0.3,0,17.5.43,41.39,0.43,17,0,37.48-.22,57.59-1l0-.44C1396.14,229,1346,227.75,1345.47,227.73Z" transform="translate(72.52 -43.84)"/><path class="cls-1" d="M1319.63,276.78v0.43c0.15,0,4.46,0,11.12,0,16.85,0,48.67-.15,65.62-1.16l0-.43C1372.71,277.06,1320.15,276.79,1319.63,276.78Z" transform="translate(72.52 -43.84)"/><path class="cls-1" d="M1397.17,57l0-.44c-23.91,1.24-77-.56-77.51-0.58l0,0.44c0.4,0,29.9,1,54.84,1C1383,57.45,1391,57.33,1397.17,57Z" transform="translate(72.52 -43.84)"/></svg>