<svg id="Layer_1" data-name="Layer 1" xmlns="http://www.w3.org/2000/svg" viewBox="0 0 570 208"><defs><style>.cls-1{fill:#828282;}.cls-2,.cls-3,.cls-4,.cls-5{fill:none;stroke-miterlimit:10;}.cls-2{stroke:#fff;}.cls-3{stroke:#7fab16;}.cls-3,.cls-4,.cls-5{stroke-width:2px;}.cls-4{stroke:#cf0b7b;}.cls-5{stroke:#0089e0;}.cls-6{fill:#fff;}</style></defs><title>home-intro-head</title><rect class="cls-1" width="570" height="208"/><line class="cls-2" x1="457.91" y1="129.49" x2="345.89" y2="157.88"/><line class="cls-2" x1="442.94" y1="61.61" x2="457.91" y2="129.49"/><line class="cls-2" x1="270.83" y1="85.67" x2="457.91" y2="129.49"/><line class="cls-2" x1="351" y1="60.5" x2="457.91" y2="129.49"/><line class="cls-2" x1="492.31" y1="95.8" x2="457.91" y2="129.49"/><line class="cls-2" x1="333.5" y1="166" x2="319" y2="179"/><line class="cls-2" x1="331.33" y1="159.33" x2="292" y2="152.5"/><line class="cls-2" x1="330" y1="163.33" x2="254.33" y2="183.67"/><line class="cls-2" x1="253.33" y1="79.67" x2="233.67" y2="60.67"/><line class="cls-2" x1="435" y1="45.33" x2="420.33" y2="29.33"/><line class="cls-2" x1="449.33" y1="49.33" x2="477.33" y2="37.67"/><line class="cls-2" x1="496.33" y1="89.67" x2="506" y2="58.25"/><line class="cls-2" x1="498.99" y1="92.96" x2="536.25" y2="92.33"/><circle class="cls-3" cx="220.94" cy="53.11" r="9.53" transform="translate(213.22 50.44) rotate(-12.84)"/><circle class="cls-3" cx="126.56" cy="57" r="6.35" transform="translate(209.99 29.56) rotate(-12.84)"/><circle class="cls-4" cx="41.68" cy="85.33" r="9.53" transform="translate(201.57 11.4) rotate(-12.84)"/><circle class="cls-5" cx="118.87" cy="161" r="7.15" transform="translate(186.68 30.45) rotate(-12.84)"/><line class="cls-2" x1="459.4" y1="129.69" x2="518.15" y2="189.76"/><circle class="cls-5" cx="303.65" cy="194.76" r="7.15" transform="translate(168.01 258.09) rotate(-42.79)"/><circle class="cls-6" cx="238.41" cy="129.48" r="10.03" transform="translate(196.68 56.24) rotate(-12.84)"/><circle class="cls-4" cx="275.81" cy="92.8" r="3.77" transform="translate(205.77 63.63) rotate(-12.84)"/><circle class="cls-3" cx="251" cy="185.25" r="4.25"/><circle class="cls-5" cx="288" cy="152.5" r="4"/><circle class="cls-4" cx="314.5" cy="182.5" r="5"/><circle class="cls-5" cx="231" cy="58.67" r="4"/><circle class="cls-5" cx="482.5" cy="35" r="6"/><circle class="cls-3" cx="505.92" cy="56.67" r="2.75"/><circle class="cls-4" cx="417.75" cy="26.25" r="4.75"/><circle class="cls-4" cx="538.25" cy="92.33" r="2.25"/></svg>